<?xml version="1.0" encoding="UTF-8"?>
<svg id="OBJECTS" xmlns="http://www.w3.org/2000/svg" xmlns:xlink="http://www.w3.org/1999/xlink" viewBox="0 0 2229.39 832.28">
  <defs>
    <style>
      .cls-1 {
        fill: #5589cd;
      }

      .cls-1, .cls-2, .cls-3, .cls-4, .cls-5, .cls-6, .cls-7, .cls-8, .cls-9, .cls-10 {
        stroke-width: 0px;
      }

      .cls-2 {
        fill: #daac97;
      }

      .cls-3 {
        fill: #85c2f7;
      }

      .cls-4 {
        fill: none;
      }

      .cls-5 {
        fill: #b7daf3;
      }

      .cls-6 {
        fill: #b33c26;
      }

      .cls-7 {
        fill: #ce7257;
      }

      .cls-11 {
        clip-path: url(#clippath);
      }

      .cls-8 {
        fill: #cf4e31;
      }

      .cls-9 {
        fill: #6bacf7;
      }

      .cls-10 {
        fill: #eaeaea;
      }
    </style>
    <clipPath id="clippath">
      <polyline class="cls-4" points="168.76 828.69 168.76 0 2088.76 0 2088.76 828.69"/>
    </clipPath>
  </defs>
  <g class="cls-11">
    <path class="cls-9" d="m58.11,278.27H0v-58.06h.05c32.06,0,58.06,25.99,58.06,58.06h0Z"/>
    <g>
      <path class="cls-6" d="m91.63,1.39h75.48v138.42H28.57v-75.35C28.57,29.65,56.82,1.39,91.63,1.39Z"/>
      <path class="cls-8" d="m106.32,28.32h60.79v111.48H55.52v-60.69c0-28.03,22.76-50.79,50.79-50.79Z"/>
      <path class="cls-2" d="m119.62,52.71h47.49v87.09h-87.17v-47.41c0-21.9,17.78-39.68,39.68-39.68Z"/>
      <path class="cls-5" d="m166.92,1.39h82.97c30.67,0,55.57,24.9,55.57,55.57v82.84h-138.54V1.39h0Z"/>
      <path class="cls-7" d="m166.92,28.05h66.99c24.76,0,44.87,20.11,44.87,44.87v66.89h-111.86V28.05h0Z"/>
      <path class="cls-3" d="m166.92,52.29h52.46c19.39,0,35.14,15.74,35.14,35.14v52.38h-48.19c-21.75,0-39.41-17.66-39.41-39.41v-48.11h0Z"/>
      <path class="cls-9" d="m443.69,1.39h.12v138.42h-138.54C305.28,63.41,367.3,1.39,443.69,1.39Z"/>
      <path class="cls-5" d="m28.57,139.85h.12c76.39,0,138.42,62.02,138.42,138.42H28.57v-138.42h0Z"/>
      <path class="cls-3" d="m128.61,278.27H28.57v-99.95h.09c55.2,0,99.95,44.75,99.95,99.95h0Z"/>
      <path class="cls-6" d="m236.19,139.85h0c38.23,0,69.27,31.04,69.27,69.27v69.15h-138.54v-69.15c0-38.23,31.04-69.27,69.27-69.27Z"/>
      <path class="cls-7" d="m236.19,169.35h0c21.94,0,39.75,17.81,39.75,39.75v39.67h-79.49v-39.67c0-21.94,17.81-39.75,39.75-39.75Z"/>
      <path class="cls-8" d="m374.49,139.85h.12c38.2,0,69.21,31.01,69.21,69.21h0c0,38.2-31.01,69.21-69.21,69.21h-.12c-38.2,0-69.21-31.01-69.21-69.21h0c0-38.2,31.01-69.21,69.21-69.21Z"/>
      <path class="cls-2" d="m374.58,248.17h-.07c-21.6,0-39.11-17.51-39.11-39.11h0c0-21.6,17.51-39.11,39.11-39.11h.07c21.6,0,39.11,17.51,39.11,39.11h0c0,21.6-17.51,39.11-39.11,39.11Z"/>
      <path class="cls-5" d="m374.56,222.2h-.02c-7.26,0-13.14-5.88-13.14-13.14h0c0-7.26,5.88-13.14,13.14-13.14h.02c7.26,0,13.14,5.88,13.14,13.14h0c0,7.26-5.88,13.14-13.14,13.14Z"/>
      <rect class="cls-8" x="28.57" y="278.31" width="138.54" height="138.42"/>
      <rect class="cls-7" x="53.31" y="303.03" width="89.05" height="88.97" rx="17.47" ry="17.47" transform="translate(-217.08 170.97) rotate(-45)"/>
      <rect class="cls-2" x="75.68" y="325.38" width="44.32" height="44.28" rx="8.69" ry="8.69" transform="translate(-249.68 445.36) rotate(-90)"/>
      <rect class="cls-1" x="166.92" y="278.31" width="138.54" height="138.42"/>
      <path class="cls-9" d="m166.92,278.31h138.54v138.42h-91.31c-26.07,0-47.23-21.17-47.23-47.23v-91.18h0Z"/>
      <path class="cls-1" d="m196.45,278.31h109.02v108.92h-71.85c-20.51,0-37.17-16.65-37.17-37.17v-71.75h0Z"/>
      <path class="cls-5" d="m217.1,298.95h39.77c15.42,0,27.94,12.52,27.94,27.94v39.7h-44.62c-12.74,0-23.08-10.34-23.08-23.08v-44.56h0Z"/>
      <rect class="cls-2" x="305.28" y="278.31" width="138.54" height="138.42"/>
      <path class="cls-7" d="m305.28,347.52h0c0,38.22,30.99,69.21,69.21,69.21h.12c38.22,0,69.21-30.99,69.21-69.21h-138.54Z"/>
      <path class="cls-9" d="m410.13,347.85h0c0-19.63-15.92-35.55-35.55-35.55h-.06c-19.63,0-35.55,15.92-35.55,35.55h0s71.16,0,71.16,0Z"/>
      <rect class="cls-10" x="166.92" y="416.78" width="138.54" height="138.42"/>
      <rect class="cls-6" x="28.57" y="555.24" width="138.54" height="138.42"/>
      <path class="cls-2" d="m166.92,555.24h138.54v44.71c0,51.72-41.99,93.7-93.7,93.7h-44.84v-138.42h0Z"/>
      <path class="cls-3" d="m166.92,555.24h118.5v37.98c0,44.16-35.85,80.01-80.01,80.01h-38.49v-117.99h0Z"/>
      <path class="cls-2" d="m166.92,555.24h95.25v30.52c0,35.49-28.82,64.31-64.31,64.31h-30.94v-94.83h0Z"/>
      <path class="cls-5" d="m166.92,555.24h71.5v22.91c0,26.64-21.63,48.28-48.28,48.28h-23.22v-71.19h0Z"/>
      <path class="cls-7" d="m513.38,139.8h-.12c-38.22,0-69.21-30.99-69.21-69.21h0c0-38.22,30.99-69.21,69.21-69.21h.12c38.22,0,69.21,30.99,69.21,69.21h0c0,38.22-30.99,69.21-69.21,69.21Z"/>
      <path class="cls-8" d="m513.35,108.27h-.07c-20.81,0-37.68-16.87-37.68-37.68h0c0-20.81,16.87-37.68,37.68-37.68h.07c20.81,0,37.68,16.87,37.68,37.68h0c0,20.81-16.87,37.68-37.68,37.68Z"/>
      <path class="cls-9" d="m662.85,108.27h-.07c-20.81,0-37.68-16.87-37.68-37.68h0c0-20.81,16.87-37.68,37.68-37.68h.07c20.81,0,37.68,16.87,37.68,37.68h0c0,20.81-16.87,37.68-37.68,37.68Z"/>
      <path class="cls-3" d="m582.46,139.85h.12c0,76.39-62.02,138.42-138.42,138.42h-.12c0-76.39,62.02-138.42,138.42-138.42Z"/>
      <path class="cls-7" d="m543.83,178.57h0c0,33.67-27.3,60.97-60.97,60.97h-.05"/>
      <path class="cls-7" d="m482.81,239.54h0c0-33.67,27.3-60.97,60.97-60.97h.05"/>
      <path class="cls-6" d="m444.05,278.31h64.58c40.82,0,73.96,33.14,73.96,73.96v64.46h-138.54v-138.42h0Z"/>
      <path class="cls-7" d="m464.53,298.78h45.49c28.75,0,52.09,23.34,52.09,52.09v45.4h-37.57c-33.12,0-60.01-26.89-60.01-60.01v-37.48h0Z"/>
      <path class="cls-5" d="m492.99,327.21h18.96c11.98,0,21.71,9.73,21.71,21.71v18.92h-15.66c-13.8,0-25.01-11.21-25.01-25.01v-15.62h0Z"/>
      <path class="cls-7" d="m582.05,416.93h.12v138.42h-138.54c0-76.39,62.02-138.42,138.42-138.42Z" transform="translate(1025.8 972.28) rotate(180)"/>
      <path class="cls-3" d="m305.28,416.93h138.54c0,76.39-62.02,138.42-138.42,138.42h-.12v-138.42h0Z" transform="translate(749.09 972.28) rotate(180)"/>
      <path class="cls-6" d="m583.79,690.27h138.54c0,76.39-62.02,138.42-138.42,138.42h-.12v-138.42h0Z" transform="translate(1306.12 1518.96) rotate(180)"/>
      <path class="cls-7" d="m617.1,724.79h81.26c0,44.81-36.38,81.19-81.19,81.19h-.07v-81.19h0Z" transform="translate(1315.46 1530.76) rotate(180)"/>
      <rect class="cls-7" x="166.92" y="416.93" width="138.54" height="138.42" transform="translate(472.38 972.28) rotate(180)"/>
      <path class="cls-8" d="m236.13,416.93h.12c38.2,0,69.21,31.01,69.21,69.21h0c0,38.2-31.01,69.21-69.21,69.21h-.12c-38.2,0-69.21-31.01-69.21-69.21h0c0-38.2,31.01-69.21,69.21-69.21Z" transform="translate(472.38 972.28) rotate(180)"/>
      <path class="cls-5" d="m238.14,440.69h-.08v90.91h.08c25.1,0,45.45-20.35,45.45-45.45h0c0-25.1-20.35-45.45-45.45-45.45Z"/>
      <path class="cls-10" d="m28.57,416.93h138.54v138.42h-.12c-76.39,0-138.42-62.02-138.42-138.42h0Z" transform="translate(195.67 972.28) rotate(180)"/>
      <path class="cls-2" d="m28.57,461.83h93.61v93.53h-.08c-51.62,0-93.52-41.91-93.52-93.52h0Z" transform="translate(150.74 1017.18) rotate(180)"/>
      <path class="cls-1" d="m582.05,555.4h.12v138.42h-138.54c0-76.39,62.02-138.42,138.42-138.42Z" transform="translate(1025.8 1249.21) rotate(-180)"/>
      <path class="cls-3" d="m443.63,617.4h.06c34.24,0,62-27.76,62-62h-62.06v62Z"/>
      <path class="cls-6" d="m305.28,555.4h.12c76.39,0,138.42,62.02,138.42,138.42h-.12c-76.39,0-138.42-62.02-138.42-138.42h0Z" transform="translate(749.09 1249.21) rotate(180)"/>
      <path class="cls-7" d="m28.57,555.4h138.54v138.42h-.12c-76.39,0-138.42-62.02-138.42-138.42h0Z" transform="translate(195.67 1249.21) rotate(180)"/>
      <path class="cls-1" d="m144.99,671.8h.08c0-52.13-42.26-94.39-94.39-94.39h-.08c0,52.13,42.26,94.39,94.39,94.39Z"/>
      <path class="cls-7" d="m443.63,693.86h.12c76.39,0,138.42,62.02,138.42,138.42h-.12c-76.39,0-138.42-62.02-138.42-138.42h0Z" transform="translate(1025.8 1526.14) rotate(180)"/>
      <path class="cls-3" d="m861.82,693.86h.12c0,76.39-62.02,138.42-138.42,138.42h-.12c0-76.39,62.02-138.42,138.42-138.42Z"/>
      <path class="cls-9" d="m443.69,693.86h.12v138.42h-138.54c0-76.39,62.02-138.42,138.42-138.42Z" transform="translate(749.09 1526.14) rotate(-180)"/>
      <path class="cls-7" d="m398.46,726.26h.05v60.74h-60.8c0-33.52,27.22-60.74,60.74-60.74Z" transform="translate(736.23 1513.27) rotate(180)"/>
      <rect class="cls-10" x="166.92" y="693.86" width="138.54" height="138.42" transform="translate(472.38 1526.14) rotate(180)"/>
      <path class="cls-2" d="m166.92,693.86h90.01c26.78,0,48.53,21.74,48.53,48.53v41.36c0,26.78-21.74,48.53-48.53,48.53h-41.49c-26.78,0-48.53-21.74-48.53-48.53v-89.89h0Z" transform="translate(472.38 1526.14) rotate(180)"/>
      <path class="cls-6" d="m236.19,832.28h0c10.5,0,19.02-8.52,19.02-19.02v-100.38c0-10.5-8.52-19.02-19.02-19.02h0c-10.5,0-19.02,8.52-19.02,19.02v100.38c0,10.5,8.52,19.02,19.02,19.02Z"/>
      <rect class="cls-2" x="28.57" y="693.86" width="138.54" height="138.42" transform="translate(195.67 1526.14) rotate(180)"/>
      <path class="cls-7" d="m95.17,832.28h71.94v-138.42h0c-39.73,0-71.94,32.21-71.94,71.94v66.48Z"/>
    </g>
    <g>
      <path class="cls-6" d="m2090.85,1.39h138.54v138.42h-75.48c-34.81,0-63.06-28.26-63.06-63.06V1.39h0Z" transform="translate(4320.24 141.19) rotate(180)"/>
      <path class="cls-8" d="m2090.85,28.32h111.58v111.48h-60.79c-28.03,0-50.79-22.76-50.79-50.79V28.32h0Z" transform="translate(4293.28 168.13) rotate(180)"/>
      <path class="cls-2" d="m2090.85,52.71h87.17v87.09h-47.49c-21.9,0-39.68-17.78-39.68-39.68v-47.41h0Z" transform="translate(4268.87 192.51) rotate(180)"/>
      <path class="cls-5" d="m1952.49,1.39h138.54v82.84c0,30.67-24.9,55.57-55.57,55.57h-82.97V1.39h0Z" transform="translate(4043.53 141.19) rotate(180)"/>
      <path class="cls-7" d="m1979.18,28.05h111.86v66.89c0,24.76-20.11,44.87-44.87,44.87h-66.99V28.05h0Z" transform="translate(4070.21 167.85) rotate(180)"/>
      <path class="cls-3" d="m2042.85,52.29h48.19v52.38c0,19.39-15.74,35.14-35.14,35.14h-52.46v-48.11c0-21.75,17.66-39.41,39.41-39.41Z" transform="translate(4094.47 192.09) rotate(180)"/>
      <path class="cls-9" d="m1814.14,1.39h138.54v138.42h-.12c-76.39,0-138.42-62.02-138.42-138.42h0Z" transform="translate(3766.82 141.19) rotate(180)"/>
      <path class="cls-5" d="m2090.85,139.85h138.54c0,76.39-62.02,138.42-138.42,138.42h-.12v-138.42h0Z" transform="translate(4320.24 418.12) rotate(180)"/>
      <path class="cls-3" d="m2129.35,278.27h100.04v-99.95h-.09c-55.2,0-99.95,44.75-99.95,99.95h0Z"/>
      <path class="cls-6" d="m1952.49,139.85h138.54v69.15c0,38.23-31.04,69.27-69.27,69.27h0c-38.23,0-69.27-31.04-69.27-69.27v-69.15h0Z" transform="translate(4043.53 418.12) rotate(180)"/>
      <path class="cls-7" d="m1982.02,169.35h79.49v39.67c0,21.94-17.81,39.75-39.75,39.75h0c-21.94,0-39.74-17.81-39.74-39.74v-39.67h0Z" transform="translate(4043.53 418.12) rotate(180)"/>
      <rect class="cls-8" x="1814.14" y="139.85" width="138.54" height="138.42" rx="69.21" ry="69.21" transform="translate(3766.82 418.12) rotate(180)"/>
      <path class="cls-2" d="m1883.37,248.17h.07c21.6,0,39.11-17.51,39.11-39.11h0c0-21.6-17.51-39.11-39.11-39.11h-.07c-21.6,0-39.11,17.51-39.11,39.11h0c0,21.6,17.51,39.11,39.11,39.11Z"/>
      <path class="cls-5" d="m1883.4,222.2h.02c7.26,0,13.14-5.88,13.14-13.14h0c0-7.26-5.88-13.14-13.14-13.14h-.02c-7.26,0-13.14,5.88-13.14,13.14h0c0,7.26,5.88,13.14,13.14,13.14Z"/>
      <rect class="cls-8" x="2090.85" y="278.31" width="138.54" height="138.42" transform="translate(4320.24 695.04) rotate(180)"/>
      <rect class="cls-7" x="2115.59" y="303.03" width="89.05" height="88.97" rx="17.47" ry="17.47" transform="translate(3441.82 2120.69) rotate(-135)"/>
      <rect class="cls-2" x="2137.96" y="325.38" width="44.32" height="44.28" rx="8.69" ry="8.69" transform="translate(1812.6 2507.64) rotate(-90)"/>
      <rect class="cls-1" x="1952.49" y="278.31" width="138.54" height="138.42" transform="translate(4043.53 695.04) rotate(180)"/>
      <path class="cls-9" d="m1999.73,278.31h91.31v138.42h-138.54v-91.18c0-26.07,21.17-47.23,47.23-47.23Z" transform="translate(4043.53 695.04) rotate(180)"/>
      <path class="cls-1" d="m1989.66,278.31h71.85v108.92h-109.01v-71.75c0-20.51,16.65-37.17,37.17-37.17Z" transform="translate(4014 665.54) rotate(180)"/>
      <path class="cls-5" d="m1996.23,298.95h44.62v39.71c0,15.42-12.52,27.94-27.94,27.94h-39.77v-44.56c0-12.74,10.34-23.08,23.08-23.08Z" transform="translate(4014 665.54) rotate(180)"/>
      <rect class="cls-2" x="1814.14" y="278.31" width="138.54" height="138.42" transform="translate(3766.82 695.04) rotate(180)"/>
      <path class="cls-7" d="m1952.68,347.52h0c0,38.22-30.99,69.21-69.21,69.21h-.12c-38.22,0-69.21-30.99-69.21-69.21h138.54Z"/>
      <path class="cls-9" d="m1847.83,347.85h0c0-19.63,15.92-35.55,35.55-35.55h.06c19.63,0,35.55,15.92,35.55,35.55h0s-71.16,0-71.16,0Z"/>
      <rect class="cls-10" x="1952.49" y="416.78" width="138.54" height="138.42" transform="translate(4043.53 971.97) rotate(180)"/>
      <rect class="cls-6" x="2090.85" y="555.24" width="138.54" height="138.42" transform="translate(4320.24 1248.89) rotate(180)"/>
      <path class="cls-2" d="m1952.49,555.24h44.84c51.72,0,93.7,41.99,93.7,93.7v44.71h-138.54v-138.42h0Z" transform="translate(4043.53 1248.89) rotate(180)"/>
      <path class="cls-3" d="m1972.53,555.24h38.49c44.16,0,80.01,35.85,80.01,80.01v37.98h-118.5v-117.99h0Z" transform="translate(4063.57 1228.46) rotate(180)"/>
      <path class="cls-2" d="m1995.79,555.24h30.94c35.49,0,64.31,28.82,64.31,64.31v30.52h-95.25v-94.83h0Z" transform="translate(4086.82 1205.31) rotate(180)"/>
      <path class="cls-5" d="m2019.54,555.24h23.22c26.64,0,48.28,21.63,48.28,48.28v22.91h-71.5v-71.19h0Z" transform="translate(4110.57 1181.66) rotate(180)"/>
      <path class="cls-7" d="m1744.58,139.8h.12c38.22,0,69.21-30.99,69.21-69.21h0c0-38.22-30.99-69.21-69.21-69.21h-.12c-38.22,0-69.21,30.99-69.21,69.21h0c0,38.22,30.99,69.21,69.21,69.21Z"/>
      <path class="cls-8" d="m1744.6,108.27h.07c20.81,0,37.68-16.87,37.68-37.68h0c0-20.81-16.87-37.68-37.68-37.68h-.07c-20.81,0-37.68,16.87-37.68,37.68h0c0,20.81,16.87,37.68,37.68,37.68Z"/>
      <path class="cls-9" d="m1595.11,108.27h.07c20.81,0,37.68-16.87,37.68-37.68h0c0-20.81-16.87-37.68-37.68-37.68h-.07c-20.81,0-37.68,16.87-37.68,37.68h0c0,20.81,16.87,37.68,37.68,37.68Z"/>
      <path class="cls-3" d="m1675.37,139.85h.12c76.39,0,138.42,62.02,138.42,138.42h-.12c-76.39,0-138.42-62.02-138.42-138.42h0Z" transform="translate(3489.27 418.12) rotate(-180)"/>
      <path class="cls-7" d="m1714.13,178.57h0c0,33.67,27.3,60.97,60.97,60.97h.05"/>
      <path class="cls-7" d="m1775.15,239.54h0c0-33.67-27.3-60.97-60.97-60.97h-.05"/>
      <path class="cls-6" d="m1675.37,278.31h138.54v64.46c0,40.82-33.14,73.96-73.96,73.96h-64.58v-138.42h0Z" transform="translate(3489.27 695.04) rotate(180)"/>
      <path class="cls-7" d="m1755.86,298.78h37.57v45.4c0,28.75-23.34,52.09-52.09,52.09h-45.49v-37.48c0-33.12,26.89-60.01,60.01-60.01Z" transform="translate(3489.27 695.04) rotate(180)"/>
      <path class="cls-5" d="m1749.31,327.21h15.66v18.92c0,11.98-9.73,21.71-21.71,21.71h-18.96v-15.62c0-13.8,11.21-25.01,25.01-25.01Z" transform="translate(3489.27 695.04) rotate(180)"/>
      <path class="cls-7" d="m1675.78,416.93h138.54v138.42h-.12c-76.39,0-138.42-62.02-138.42-138.42h0Z"/>
      <path class="cls-3" d="m1814.14,416.93h.12c76.39,0,138.42,62.02,138.42,138.42h-138.54v-138.42h0Z"/>
      <path class="cls-6" d="m1535.62,690.27h.12c76.39,0,138.42,62.02,138.42,138.42h-138.54v-138.42h0Z"/>
      <path class="cls-7" d="m1559.59,724.79h.07c44.81,0,81.19,36.38,81.19,81.19h-81.26v-81.19h0Z"/>
      <rect class="cls-7" x="1952.49" y="416.93" width="138.54" height="138.42"/>
      <path class="cls-8" d="m2021.7,416.93h.12c38.2,0,69.21,31.01,69.21,69.21h0c0,38.2-31.01,69.21-69.21,69.21h-.12c-38.2,0-69.21-31.01-69.21-69.21h0c0-38.2,31.01-69.21,69.21-69.21Z"/>
      <path class="cls-5" d="m2019.82,440.69h.08v90.91h-.08c-25.1,0-45.45-20.35-45.45-45.45h0c0-25.1,20.35-45.45,45.45-45.45Z"/>
      <path class="cls-10" d="m2229.27,416.93h.12v138.42h-138.54c0-76.39,62.02-138.42,138.42-138.42Z"/>
      <path class="cls-2" d="m2229.31,461.83h.08v93.53h-93.61c0-51.62,41.91-93.53,93.52-93.53Z"/>
      <path class="cls-1" d="m1675.78,555.4h138.54v138.42h-.12c-76.39,0-138.42-62.02-138.42-138.42h0Z"/>
      <path class="cls-3" d="m1814.32,617.4h-.06c-34.24,0-62-27.76-62-62h62.06v62Z"/>
      <path class="cls-6" d="m1952.56,555.4h.12c0,76.39-62.02,138.42-138.42,138.42h-.12c0-76.39,62.02-138.42,138.42-138.42Z"/>
      <path class="cls-7" d="m2229.27,555.4h.12v138.42h-138.54c0-76.39,62.02-138.42,138.42-138.42Z"/>
      <path class="cls-1" d="m2112.97,671.8h-.08c0-52.13,42.26-94.39,94.39-94.39h.08c0,52.13-42.26,94.39-94.39,94.39Z"/>
      <path class="cls-7" d="m1814.2,693.86h.12c0,76.39-62.02,138.42-138.42,138.42h-.12c0-76.39,62.02-138.42,138.42-138.42Z"/>
      <path class="cls-3" d="m1396.01,693.86h.12c76.39,0,138.42,62.02,138.42,138.42h-.12c-76.39,0-138.42-62.02-138.42-138.42h0Z" transform="translate(2930.56 1526.14) rotate(180)"/>
      <path class="cls-9" d="m1814.14,693.86h138.54v138.42h-.12c-76.39,0-138.42-62.02-138.42-138.42h0Z"/>
      <path class="cls-7" d="m1859.44,726.26h60.8v60.74h-.05c-33.52,0-60.74-27.22-60.74-60.74h0Z"/>
      <rect class="cls-10" x="1952.49" y="693.86" width="138.54" height="138.42"/>
      <path class="cls-2" d="m2001.02,693.86h41.49c26.78,0,48.53,21.74,48.53,48.53v41.36c0,26.78-21.74,48.53-48.53,48.53h-90.01v-89.89c0-26.78,21.74-48.53,48.53-48.53Z"/>
      <path class="cls-6" d="m2021.76,832.28h0c-10.5,0-19.02-8.52-19.02-19.02v-100.38c0-10.5,8.52-19.02,19.02-19.02h0c10.5,0,19.02,8.52,19.02,19.02v100.38c0,10.5-8.52,19.02-19.02,19.02Z"/>
      <rect class="cls-2" x="2090.85" y="693.86" width="138.54" height="138.42"/>
      <path class="cls-7" d="m2162.79,832.28h-71.94v-138.42h0c39.73,0,71.94,32.21,71.94,71.94v66.48Z"/>
    </g>
  </g>
</svg>