<?xml version="1.0" encoding="UTF-8"?>
<svg id="OBJECTS" xmlns="http://www.w3.org/2000/svg" xmlns:xlink="http://www.w3.org/1999/xlink" viewBox="0 0 600 250">
  <defs>
    <style>
      .cls-1 {
        fill: #004d38;
      }

      .cls-1, .cls-2, .cls-3, .cls-4, .cls-5, .cls-6, .cls-7, .cls-8, .cls-9, .cls-10, .cls-11, .cls-12, .cls-13, .cls-14, .cls-15, .cls-16, .cls-17 {
        stroke-width: 0px;
      }

      .cls-18 {
        clip-path: url(#clippath-11);
      }

      .cls-19 {
        clip-path: url(#clippath-16);
      }

      .cls-20 {
        stroke-width: 4.41px;
      }

      .cls-20, .cls-21, .cls-22, .cls-7, .cls-23, .cls-24, .cls-25, .cls-26, .cls-27, .cls-28, .cls-29, .cls-30, .cls-31, .cls-32, .cls-33, .cls-34, .cls-35 {
        fill: none;
      }

      .cls-20, .cls-21, .cls-23, .cls-27, .cls-35 {
        stroke: #1d1d1b;
      }

      .cls-20, .cls-23, .cls-25, .cls-26, .cls-29, .cls-31, .cls-32, .cls-35 {
        stroke-miterlimit: 10;
      }

      .cls-2 {
        fill: #fc7121;
      }

      .cls-21 {
        stroke-width: .86px;
      }

      .cls-21, .cls-22, .cls-24, .cls-27, .cls-28, .cls-30, .cls-33, .cls-34 {
        stroke-linecap: round;
        stroke-linejoin: round;
      }

      .cls-3 {
        fill: #006851;
      }

      .cls-22 {
        stroke-width: 2.21px;
      }

      .cls-22, .cls-25 {
        stroke: #ff561e;
      }

      .cls-36 {
        clip-path: url(#clippath-2);
      }

      .cls-4 {
        fill: #d89664;
      }

      .cls-6 {
        fill: #fff5e1;
      }

      .cls-37 {
        clip-path: url(#clippath-15);
      }

      .cls-38 {
        clip-path: url(#clippath-6);
      }

      .cls-24 {
        stroke: #000;
      }

      .cls-39 {
        clip-path: url(#clippath-7);
      }

      .cls-8 {
        fill: #ffcfbf;
      }

      .cls-40 {
        clip-path: url(#clippath-1);
      }

      .cls-41 {
        clip-path: url(#clippath-4);
      }

      .cls-25, .cls-35 {
        stroke-width: 1.1px;
      }

      .cls-42 {
        clip-path: url(#clippath-12);
      }

      .cls-9 {
        fill: #fff;
      }

      .cls-10 {
        fill: #7892fa;
      }

      .cls-26 {
        stroke-width: 5.94px;
      }

      .cls-26, .cls-31 {
        stroke: #b6cbff;
      }

      .cls-11 {
        fill: #e8947e;
      }

      .cls-12 {
        fill: #dba563;
      }

      .cls-13 {
        fill: #ff561e;
      }

      .cls-28 {
        stroke: #004d38;
        stroke-width: 4.6px;
      }

      .cls-14 {
        fill: #35a187;
      }

      .cls-43 {
        clip-path: url(#clippath-9);
      }

      .cls-44 {
        clip-path: url(#clippath);
      }

      .cls-45 {
        clip-path: url(#clippath-3);
      }

      .cls-29 {
        stroke-width: 1.03px;
      }

      .cls-29, .cls-34 {
        stroke: #fff;
      }

      .cls-30 {
        stroke-width: 3.42px;
      }

      .cls-30, .cls-33 {
        stroke: #5e393a;
      }

      .cls-31 {
        stroke-width: 2.47px;
      }

      .cls-15 {
        fill: #ffa9b1;
      }

      .cls-32 {
        stroke: #ffcc3b;
        stroke-width: 2.4px;
      }

      .cls-46 {
        clip-path: url(#clippath-14);
      }

      .cls-47 {
        clip-path: url(#clippath-5);
      }

      .cls-33 {
        stroke-width: 5.75px;
      }

      .cls-48 {
        clip-path: url(#clippath-10);
      }

      .cls-16 {
        fill: #1d1d1b;
      }

      .cls-34 {
        stroke-width: 2.05px;
      }

      .cls-17 {
        fill: #d98d18;
      }
    </style>
    <clipPath id="clippath">
      <rect class="cls-7" x="-86" y="-244.88" width="750" height="500"/>
    </clipPath>
    <clipPath id="clippath-1">
      <rect class="cls-7" x="-86" y="-244.88" width="750" height="500"/>
    </clipPath>
    <clipPath id="clippath-2">
      <rect class="cls-7" x="587.79" y="104.93" width="103.86" height="107.44" transform="translate(27.28 402.24) rotate(-35.62)"/>
    </clipPath>
    <clipPath id="clippath-3">
      <rect class="cls-7" x="-86" y="-244.88" width="750" height="500"/>
    </clipPath>
    <clipPath id="clippath-4">
      <rect class="cls-7" x="-86" y="-244.88" width="750" height="500"/>
    </clipPath>
    <clipPath id="clippath-5">
      <rect class="cls-7" x="57.02" y="155.54" width="111.06" height="114.89" transform="translate(-55.9 40.78) rotate(-16.51)"/>
    </clipPath>
    <clipPath id="clippath-6">
      <rect class="cls-7" x="-86" y="-244.88" width="750" height="500"/>
    </clipPath>
    <clipPath id="clippath-7">
      <path class="cls-7" d="m331.27,47.82l-49.64-6.86c-5.68,15.11-7.07,31.82-3.97,47.66l44.5,6.15c7.29-14.41,10.48-30.86,9.1-46.95Z"/>
    </clipPath>
    <clipPath id="clippath-9">
      <rect class="cls-7" x="-86" y="-244.88" width="750" height="500"/>
    </clipPath>
    <clipPath id="clippath-10">
      <path class="cls-7" d="m417.95,160.66l-14.22-26.45c-.98-1.82-2.24-3.3-3.73-4.5-2.22-1.79-4.96-2.9-7.79-3.18-1.41-.14-2.85-.08-4.26.19-1.41.27-2.8.76-4.17,1.5-1.82.98-3.3,2.24-4.5,3.73-1.79,2.22-2.9,4.96-3.18,7.79-.14,1.41-.08,2.85.19,4.26.27,1.41.76,2.8,1.49,4.17l83.03,154.45c3.67,6.82,1.11,15.33-5.71,18.99-6.82,3.67-15.33,1.11-18.99-5.71l-83.03-154.45c-2.78-5.17-4.41-10.72-4.92-16.26-.77-8.32.91-16.61,4.73-23.9,1.91-3.64,4.37-7.04,7.32-10.05,2.95-3.01,6.41-5.63,10.29-7.72,5.17-2.78,10.72-4.41,16.26-4.92,8.32-.77,16.61.91,23.9,4.73,3.64,1.91,7.04,4.37,10.05,7.32,3.01,2.95,5.63,6.41,7.72,10.29l14.22,26.45c3.67,6.82,1.11,15.33-5.71,18.99-6.82,3.67-15.33,1.11-18.99-5.71h0Z"/>
    </clipPath>
    <clipPath id="clippath-11">
      <rect class="cls-7" x="-86" y="-244.88" width="750" height="500"/>
    </clipPath>
    <clipPath id="clippath-12">
      <rect class="cls-7" x="-86" y="-244.88" width="750" height="500"/>
    </clipPath>
    <clipPath id="clippath-13">
      <path class="cls-7" d="m-56.75-85.63l15.71-23.83c1.09-1.64,2.41-2.94,3.91-3.94,2.25-1.5,4.94-2.32,7.64-2.35,1.35-.02,2.7.16,4.01.54,1.31.38,2.59.96,3.83,1.77,1.64,1.09,2.94,2.41,3.94,3.91,1.5,2.25,2.32,4.94,2.35,7.64.02,1.35-.16,2.7-.54,4.01-.38,1.31-.96,2.59-1.77,3.83L-109.38,45.11c-4.05,6.15-2.35,14.42,3.8,18.47,6.15,4.05,14.42,2.35,18.47-3.8L4.6-79.39c3.07-4.66,5.08-9.78,6.04-14.98,1.44-7.81.55-15.8-2.45-23.02-1.5-3.61-3.54-7.04-6.08-10.14-2.54-3.1-5.59-5.88-9.08-8.18-4.66-3.07-9.78-5.08-14.98-6.04-7.81-1.44-15.8-.55-23.02,2.45-3.61,1.5-7.04,3.54-10.14,6.08-3.1,2.54-5.88,5.59-8.18,9.08l-15.71,23.83c-4.05,6.15-2.35,14.42,3.8,18.47,6.15,4.05,14.42,2.35,18.47-3.8h0Z"/>
    </clipPath>
    <clipPath id="clippath-14">
      <rect class="cls-7" x="-86" y="-244.88" width="750" height="500"/>
    </clipPath>
    <clipPath id="clippath-15">
      <rect class="cls-7" x="-86" y="-244.88" width="750" height="500"/>
    </clipPath>
    <clipPath id="clippath-16">
      <path class="cls-7" d="m38.96,178.51c-7.01-29.11-30.46-61.66-48.52-87.46-1.77-2.53-4.97-3.59-7.9-2.63-29.75,9.78-66.42,22.19-89.65,41.13-1.95,1.59-3.26,3.88-3.42,6.38-.21,3.51,1.49,5.42,8.38,7.72,1.87.63,2.33,1.58,2.56,2.78.12.61.11,1.23,0,1.84-1.05,5.55-3.23,10.77-5.32,15.99-6.95,17.4-12.9,35.2-17.81,53.28-.89,3.28-1.76,6.63-1.63,10.03.13,3.51,1.41,8.54,4.26,10.53,3.27,2.64,9.61,6.17,14.64,8.16,7.3,2.9,14.65,5.65,22.04,8.28h0c.26.1.51.19.77.28.65.23,1.3.46,1.96.69,2.29.81,4.58,1.6,6.88,2.39,1.48.51,2.96,1.02,4.44,1.52,1.48.5,2.97.97,4.46,1.46,2.31.75,4.62,1.5,6.93,2.23.66.21,1.32.42,1.98.63.26.08.52.17.78.25h0c7.49,2.34,15.02,4.57,22.59,6.64,5.21,1.43,12.4,2.43,16.6,2.29,3.47.13,7.53-3.12,9.74-5.85,2.15-2.64,3.47-5.83,4.73-8.99,7.59-18.99,14-38.45,19.16-58.23.85-3.26,2-6.44,3.36-9.53.46-1.06.98-2.22,1.82-2.97.91-.81,1.85-1.28,3.7-.66,6.87,2.3,9.38,1.8,11.32-1.11,1.38-2.07,1.72-4.67,1.14-7.09Z"/>
    </clipPath>
  </defs>
  <rect class="cls-6" x="-86" y="-244.88" width="750" height="500"/>
  <g class="cls-44">
    <g>
      <path class="cls-12" d="m651.98,235.65c-.3-.96-.77-1.9-1.36-2.73-2.97-4.12-8.35-4.1-12.71-3.69-1.69-.03-3.52-.58-4.81-1.68-7.46-7.77-15.4-15.09-23.75-21.9-4.84-3.94-10.07-7.36-15.22-10.88-3.7-2.52-7.76-4.66-10.65-8.17-2.79-3.39-5.15-7.36-7.46-11.11-3.59-5.84-1.01-14.57,1.38-20.34,3.15-7.62,8.46-13.34,12.58-20.64,4.06-6.93,5.59-15.25,3.5-23.33-2.13-12.31-15.99-21.24-27.19-13.44-8.96,6.43-13.97,16.28-20.8,23.87-4.07,4.79-8.6,9.19-13.53,12.33-1.39.89-3.1,1.25-4.77,1.07-1.87-12.82-7.13-26.01-17.54-34.5-5.88-4.8-13.58-7.82-21.09-8.67-13.65-1.55-28.28,5.5-36.39,16.44l.12-.15c-7.94,10.67-8.53,25.33-3.49,37.34,4.26,11.33,13.93,19.67,24.13,25.36,4.38,3.35-8.53,9.39-11.2,10.64-11.76,5.32-25.46,8.22-36.31,16.52-11.99,11.89.18,27.92,13.6,31.06,8.44,1.99,17.99.51,25.35-1.42,4.66-1.1,8.95-2.11,13.69-2.12,10.19,0,20.77,6.26,26.02,14.95,4.29,7.1,4.84,15.57,6.42,23.52,2.64,13.27,9,26.41,14.98,38.45.61,1.6.52,3.52-.04,5.11-1.83,3.91-3.73,8.99-.84,13.22,3.51,5.35,10.9,4.75,15.69,2.02,8.26-3.87,16.53-7.74,24.79-11.6,9.37-3.53,14.78-11.86,11.22-21.65-.64-1.9-1.6-3.76-2.68-5.62-.68-1.59-1.7-3.88-2.89-6.68-3.12-7.71-11.42-26.91-8.51-35.06.2-.33.26-.36.4-.45.33-.17.73-.22,1.25-.23,14.42,3.75,24.58,15.3,35.51,25.12,8.2,10.37,19.58,11.4,28.48,1.19,6.45-6.47,12.91-12.94,19.36-19.43,3.3-2.96,6.32-7.96,4.76-12.72Z"/>
      <path class="cls-9" d="m445.88,196.36c2.16-.65,4.53.45,5.41,2.56,1,3.01-1.31,6.36-4.21,7.29-1.77.6-4.93.4-5.14-2.05.16-2.9,3.73-3.04,5.88-3.06,9.3.35,7.1,11.22-.48,12.52-1.4.33-3.7,0-3.88-1.92-.15-1.77,1.95-2.77,3.06-2.99,5.4-1.55,10.94,3.55,7.71,8.85-1.55,2.23-7.33,3.99-9.08,1.26-1.09-2.57,2.28-3.36,4.05-3.48,3.29-.32,9.67,1.57,8.73,5.86-.37,1.06-1.98.52-1.62-.55.27-1.19-1.31-2.21-2.4-2.68-2.01-.9-5.25-1.23-7.07,0,0-.03,0-.06,0-.07,0,0,.04.06.13.11.83.54,2.7.13,4.06-.42,2.12-.72,2.7-3.19,1.64-5.01-1.23-2.2-4.43-2.57-6.59-1.54-.28.14-.51.41-.55.48.5.28,1.84.07,2.53-.22,4.57-1.67,5.82-8.09-.28-8.19-1.02,0-3.63.05-3.84,1.02,2.03,1.17,4.74-.56,5.42-2.7,1.03-1.98-1.02-3.83-2.91-3.3-1.18.37-1.74-1.41-.56-1.78h0Z"/>
      <path class="cls-9" d="m490.39,98.02c5.35.86,9.17,6.99,6.25,11.99-2.68,5-9.62,4.36-13.88,1.95-2.97-1.63-7.1-6.17-5.28-9.8,2.46-3.62,6.57.89,7.75,3.42,3.38,6.6-1.29,14.42-8.32,15.69-5.1.97-10.37-1.5-13.22-5.74-1.23-1.59-1.27-4.72,1.05-5.54,3.65-.98,6.69,3.36,7.9,6.24,4.28,10.33-8.25,20.18-16.17,11.26-2.45-2.87-.88-6.99,3.16-5.83,8.78,4.02,7.91,16.83-1.17,19.99-1.05.35-1.63-1.24-.56-1.62,5.68-1.97,7.95-9.2,4.25-14-1.02-1.26-2.83-3.3-4.54-2.46-.33.22-.47.56-.4,1.11.52,2.49,3.62,4.24,6.14,4.29,5.94.35,9.83-6.8,7.41-11.99-.79-1.91-2.11-3.73-3.9-4.8-1.95-1.08-2.49.77-1.44,2.23,4.13,6.29,13.88,6.9,17.78.08,2.32-3.83.81-9.61-3.23-11.64-.21-.07-.24-.06-.38,0-.97.58-.54,1.82-.12,2.8,1.99,4.52,7.8,7.05,12.5,5.84,2.54-.69,4.13-3.68,3.66-6.3-.44-2.64-2.89-4.85-5.58-5.34-1.21-.23-.87-2.04.33-1.83h0Z"/>
      <path class="cls-34" d="m494.21,133.62c.65,2.53-.35,4.24-1.93,5.38-1.58,1.14-4.03.89-5.36-.52"/>
      <path class="cls-9" d="m517.78,152.85c-1.09-1.67-2.23-3.39-3.86-4.54-.3-.21-.63-.41-.99-.42-.85-.03-1.38.88-1.71,1.66-1.48,3.52-2.73,7.13-3.76,10.8-3.85-.47-7.73-.7-11.61-.68-.85,0-1.89.15-2.19.95-.13.34-.07.72,0,1.07.44,1.95,1.59,3.65,2.72,5.3,1.98,2.9,3.97,5.81,6.43,8.3.45.45.95.92,1.58,1.02,1.36.23,2.35-1.22,2.92-2.47,1.26-2.74,2.37-5.56,3.34-8.42,3.08.21,6.18.27,9.27.15,1.38-.05,3.09-.41,3.4-1.75.14-.62-.09-1.26-.34-1.85-1.37-3.23-3.3-6.18-5.21-9.12Z"/>
      <path class="cls-9" d="m581.61,131.69c-1.07,1.98-3.52,2.89-5.64,2.01-2.84-1.42-3.57-5.42-2.18-8.14.83-1.67,3.21-3.77,5.09-2.18,1.94,2.16-.48,4.79-1.99,6.33-6.09,5.78-12.22-1.42-9.25-7.92.76-1.7,2.75-4.2,4.84-2.66,1.36,1.15.58,3.34-.05,4.28-1.46,2.52-4.64,4.42-7.64,3.52-3.13-.8-5.1-4.39-3.64-7.36.94-1.96,2.41-4.73,5.1-4.27,2.58,1.05.76,3.99-.41,5.32-2.07,2.54-7.98,5.71-10.31,2.04-.5-1.01,1.02-1.78,1.53-.77.65,1.03,2.49.63,3.59.2,2.1-.8,4.02-2.5,4.92-4.56.11-.28.06-.53.07-.45.01.02.05.04.05.05,0,0-.07-.01-.17.01-.97.21-2,1.82-2.58,3.16-.99,2.01.35,4.16,2.38,4.7,2.43.68,4.95-1.31,5.74-3.57.1-.29.08-.65.05-.72-.56.16-1.34,1.25-1.64,1.94-2.06,4.41,1.6,9.84,5.99,5.6.72-.72,2.53-2.6,1.99-3.44-2.26.61-2.96,3.75-1.92,5.74.67,2.13,3.43,1.99,4.39.27.57-1.1,2.23-.24,1.65.86h0Z"/>
      <g>
        <path class="cls-4" d="m476.03,143.02c-3.06,1.66-4.83,4.34-3.94,5.99s4.1,1.65,7.16,0,4.83-4.34,3.94-5.99-4.1-1.65-7.16,0Z"/>
        <path class="cls-4" d="m502.75,126.79c-3.06,1.66-4.83,4.34-3.94,5.99.89,1.65,4.1,1.65,7.16,0,3.06-1.66,4.83-4.34,3.94-5.99-.89-1.65-4.1-1.65-7.16,0Z"/>
      </g>
      <g>
        <path class="cls-9" d="m519.34,171.89c-.92-1.43-2.82-1.84-4.25-.92-1.43.92-1.84,2.82-.92,4.25.92,1.43,2.82,1.84,4.25.92,1.43-.92,1.84-2.82.92-4.25Z"/>
        <path class="cls-9" d="m527.37,184.33c-.92-1.43-2.82-1.84-4.25-.92s-1.84,2.82-.92,4.25,2.82,1.84,4.25.92c1.43-.92,1.84-2.82.92-4.25Z"/>
        <path class="cls-9" d="m531.09,195.77c-1.43.92-1.84,2.82-.92,4.25s2.82,1.84,4.25.92c1.43-.92,1.84-2.82.92-4.25-.92-1.43-2.82-1.84-4.25-.92Z"/>
      </g>
      <path class="cls-9" d="m477.35,136.09c.59,1.1.18,2.47-.92,3.07s-2.47.18-3.07-.92-.18-2.47.92-3.07,2.47-.18,3.07.92Z"/>
      <path class="cls-9" d="m498.59,122.6c.59,1.1.18,2.47-.92,3.07-1.1.59-2.47.18-3.07-.92-.59-1.1-.18-2.47.92-3.07,1.1-.59,2.47-.18,3.07.92Z"/>
      <path class="cls-16" d="m518.76,111.42c-7.03-11.25-19.46-18.49-32.64-19.56-.28-.01-.27-.46.02-.45,13.45.32,26.51,7.92,33.05,19.74.16.27-.26.54-.43.27h0Z"/>
      <path class="cls-16" d="m573.78,245.22c9.86,5.05,17.83,13.63,25.75,21.22.2.19-.08.52-.3.34-6.39-5.35-12.23-11.35-18.85-16.42-2.2-1.68-4.46-3.27-6.84-4.69-.27-.15-.04-.6.25-.45h0Z"/>
      <path class="cls-16" d="m436.6,228.08c6.68,2.01,13.85,1.71,20.67.57,6.92-1.13,13.69-3.6,20.78-3.36.27,0,.3.45,0,.45-7.06.17-13.69,2.72-20.62,3.89-3.49.57-7.03.9-10.57.79-3.54-.12-7.1-.61-10.43-1.87-.29-.11-.14-.59.17-.48h0Z"/>
    </g>
  </g>
  <g class="cls-40">
    <rect class="cls-2" x="587.79" y="104.93" width="103.86" height="107.44" transform="translate(27.28 402.24) rotate(-35.62)"/>
    <g class="cls-36">
      <g>
        <circle class="cls-15" cx="608.81" cy="90.86" r="9.7" transform="translate(114.07 457.1) rotate(-45)"/>
        <circle class="cls-15" cx="576.68" cy="108.2" r="9.7"/>
        <circle class="cls-15" cx="608.81" cy="125.54" r="9.7"/>
        <circle class="cls-15" cx="576.68" cy="142.88" r="9.7" transform="translate(67.88 449.62) rotate(-45)"/>
        <circle class="cls-15" cx="608.81" cy="160.22" r="9.7" transform="translate(65.03 477.42) rotate(-45)"/>
        <circle class="cls-15" cx="576.68" cy="177.56" r="9.7"/>
        <circle class="cls-15" cx="608.81" cy="194.9" r="9.7"/>
        <circle class="cls-15" cx="576.68" cy="212.24" r="9.7" transform="translate(18.83 469.94) rotate(-45)"/>
        <circle class="cls-15" cx="608.81" cy="229.58" r="9.7" transform="translate(15.98 497.74) rotate(-45)"/>
        <circle class="cls-15" cx="576.68" cy="246.92" r="9.7"/>
      </g>
    </g>
    <g>
      <path class="cls-5" d="m598.25,190.54c23.06-18.75,57.41-48.62,80.79-67.2.08.09.07.24-.02.32-18.08,15.76-41.48,35.45-60.06,50.78-5.92,4.88-14.4,11.85-20.38,16.5-.24.2-.58-.19-.32-.4h0Z"/>
      <path class="cls-5" d="m594.5,185.33c24.75-16.26,61.81-42.44,86.85-58.5.07.1.04.24-.06.31-19.52,13.81-44.69,30.98-64.65,44.31-6.36,4.24-15.47,10.3-21.87,14.3-.12.08-.28.04-.35-.08-.07-.12-.04-.27.08-.35h0Z"/>
    </g>
    <g>
      <path class="cls-24" d="m614.69,110.02c-7.22,7.16-18.17,8.75-27.84,6.78-29.67-7.42-11.17-29.51,27.73-7.07"/>
      <path class="cls-24" d="m614.69,110.02c-32.66,16.23-39.16-15.9,0,0"/>
    </g>
  </g>
  <g class="cls-45">
    <g>
      <g>
        <path class="cls-14" d="m-35.13,238.96c19.36,4.96,39.14,8.26,59.06,9.84"/>
        <path class="cls-3" d="m-34.7,237.29c19.33,4.66,39.04,7.66,58.84,8.94,1.41.09,2.49,1.31,2.39,2.73-.09,1.41-1.31,2.49-2.73,2.39-20.07-1.87-39.95-5.47-59.36-10.74-2.12-.62-1.35-3.79.85-3.32h0Z"/>
      </g>
      <g>
        <path class="cls-14" d="m-6.96,225.3c6.63-16.55,13.25-33.1,19.88-49.65"/>
        <path class="cls-3" d="m-8.55,224.66l19.09-49.96c1.28-3.12,5.92-1.37,4.79,1.83.01,0-20.69,49.38-20.7,49.4-.88,2.02-3.95.82-3.18-1.27h0Z"/>
      </g>
      <path class="cls-1" d="m6.98,216.35c6.13-20.1,11.32-40.47,15.53-61.04.28-1.39,1.64-2.28,3.03-2,1.39.28,2.28,1.64,2,3.03-4.8,20.62-10.58,41-17.29,61.05-.73,2.08-3.88,1.11-3.27-1.05h0Z"/>
      <g>
        <path class="cls-14" d="m24.92,207.45c2.38-12.67,4.32-25.43,5.8-38.24"/>
        <path class="cls-3" d="m23.24,207.13c2.1-12.68,3.74-25.43,4.94-38.22.13-1.41,1.38-2.45,2.79-2.32,1.41.13,2.45,1.38,2.32,2.79-1.77,12.87-4,25.68-6.68,38.37-.48,2.14-3.7,1.56-3.37-.63h0Z"/>
      </g>
      <path class="cls-1" d="m32.63,200.26c6.3-22.45,11.87-45.08,16.81-67.85.3-1.39,1.67-2.26,3.05-1.96,1.38.3,2.26,1.67,1.96,3.05-5.52,22.75-11.67,45.36-18.53,67.73-.69,2.1-3.84,1.23-3.29-.96h0Z"/>
      <path class="cls-1" d="m48.87,188.69c2.24-9.07,4.14-18.22,5.69-27.41.24-1.4,1.56-2.34,2.96-2.11,1.45.24,2.41,1.68,2.07,3.11-2.13,9.21-4.61,18.33-7.42,27.33-.68,2.08-3.8,1.21-3.3-.92h0Z"/>
      <g>
        <path class="cls-14" d="m66.24,176.83c5.35-20.45,10.29-39.82,14.44-60.54"/>
        <path class="cls-3" d="m64.58,176.39c4.99-20.14,9.82-40.29,13.59-60.61.26-1.39,1.6-2.31,2.99-2.06,1.39.26,2.31,1.6,2.06,2.99-4.36,20.4-9.77,40.52-15.31,60.54-.63,2.12-3.8,1.33-3.32-.87h0Z"/>
      </g>
      <g>
        <path class="cls-14" d="m78.72,165.85c2.55-11.42,5.25-21.48,7.8-32.9"/>
        <path class="cls-3" d="m77.05,165.48c2.19-11.11,4.81-22.09,6.97-33.09.27-1.39,1.62-2.3,3.01-2.02,1.39.27,2.3,1.62,2.02,3.01-2.74,11.05-5.94,21.91-8.66,32.85-.56,2.12-3.74,1.42-3.35-.75h0Z"/>
      </g>
      <path class="cls-1" d="m91.39,152.47c3.25-19.59,5.79-39.28,7.62-59.03.13-1.41,1.38-2.45,2.79-2.32,1.41.13,2.45,1.38,2.32,2.79-2.41,19.84-5.54,39.57-9.36,59.17-.47,2.16-3.69,1.62-3.37-.61h0Z"/>
      <path class="cls-1" d="m102.88,141.01c2.44-8.99,4.26-18.1,5.8-27.31.23-1.4,1.56-2.34,2.96-2.11,1.46.24,2.42,1.68,2.08,3.12-2.11,9.18-4.53,18.35-7.55,27.3-.73,2.06-3.82,1.13-3.28-1h0Z"/>
      <g>
        <path class="cls-14" d="m116.21,128.26c3.68-17.05,6.32-34.32,7.91-51.69"/>
        <path class="cls-3" d="m114.53,127.9c3.38-17.04,5.73-34.27,7.03-51.56.11-1.41,1.34-2.47,2.75-2.37,1.41.11,2.47,1.34,2.37,2.75-1.88,17.47-4.83,34.81-8.8,51.9-.53,2.14-3.75,1.47-3.35-.72h0Z"/>
      </g>
      <path class="cls-1" d="m125.14,115.07c1.47-7.6,2.65-15.25,3.55-22.92.16-1.41,1.44-2.42,2.85-2.25,1.48.17,2.51,1.58,2.22,3.04-1.48,7.71-3.24,15.35-5.28,22.91-.59,2.09-3.72,1.37-3.34-.77h0Z"/>
      <path class="cls-3" d="m-18.68,230.49L.15,238.7c3.18,1.51.91,6.19-2.25,4.61,0,0-18.08-9.74-18.08-9.74-1.89-1.05-.5-3.92,1.5-3.08h0Z"/>
      <path class="cls-1" d="m-12.08,226.62c14.62,5.83,29.53,10.88,44.65,15.14,1.36.38,2.16,1.8,1.77,3.17-.38,1.36-1.8,2.16-3.17,1.77-15.16-4.85-30.05-10.51-44.59-16.92-2-.91-.75-3.95,1.33-3.16h0Z"/>
      <g>
        <path class="cls-14" d="m-3.59,224.24c5.48,2.62,10.97,5.25,16.45,7.87"/>
        <path class="cls-3" d="m-2.85,222.69l16.82,7.1c3.22,1.48.96,6.21-2.21,4.63l-16.09-8.64c-1.89-1.04-.51-3.9,1.48-3.09h0Z"/>
      </g>
      <g>
        <path class="cls-14" d="m5.59,218.61c18.86,2.96,36.07,5.18,55.1,6.77"/>
        <path class="cls-3" d="m5.86,216.92c18.3,2.6,36.65,4.67,55.05,5.91,1.41.09,2.48,1.32,2.39,2.73-.09,1.41-1.32,2.48-2.73,2.39-18.52-1.81-36.95-4.47-55.24-7.64-2.17-.42-1.7-3.64.53-3.39h0Z"/>
      </g>
      <path class="cls-1" d="m15.03,211.6c7.81,1.09,15.66,1.82,23.51,2.21,1.42.07,2.51,1.28,2.44,2.69-.07,1.48-1.41,2.61-2.88,2.42-7.95-.97-15.85-2.29-23.66-3.95-2.12-.48-1.57-3.65.59-3.38h0Z"/>
      <path class="cls-1" d="m26.62,205.77c16.07,3.14,32.27,5.58,48.53,7.31,1.41.15,2.43,1.41,2.28,2.82-.15,1.41-1.41,2.43-2.82,2.28-16.37-2.31-32.62-5.34-48.71-9.06-2.14-.53-1.48-3.75.72-3.35h0Z"/>
      <g>
        <path class="cls-14" d="m35.66,200.95c17.73.82,37.96-.49,55.44-3.55"/>
        <path class="cls-3" d="m35.74,199.24c18.37.49,36.88-.99,54.92-4.36,3.32-.56,4.29,4.32.96,5.04-18.55,2.89-37.32,3.82-56.05,2.75-2.21-.18-2.09-3.44.16-3.43h0Z"/>
      </g>
      <path class="cls-1" d="m47.34,189.98c16.09-.85,32.12-2.62,47.98-5.31,1.4-.24,2.72.7,2.96,2.1.24,1.4-.7,2.72-2.1,2.96-16.17,2.17-32.44,3.39-48.72,3.67-2.2,0-2.34-3.27-.12-3.43h0Z"/>
      <g>
        <path class="cls-14" d="m61.42,182c5.39.72,10.87.77,16.27.14"/>
        <path class="cls-3" d="m61.65,180.3c5.29.42,10.59.18,15.75-.71,3.53-.49,4.15,4.76.59,5.1-5.65.37-11.3.03-16.79-.99-.93-.17-1.55-1.07-1.37-2,.16-.87.97-1.46,1.83-1.4h0Z"/>
      </g>
      <path class="cls-1" d="m71.39,172.31l32.34,1.12c1.42.05,2.53,1.24,2.48,2.65-.05,1.42-1.24,2.53-2.65,2.48-.06.01-32.28-2.83-32.37-2.83-2.18-.22-1.99-3.47.21-3.42h0Z"/>
      <path class="cls-1" d="m80.83,163.29c13.49.39,26.99.1,40.43-.89,3.37-.17,3.75,4.78.37,5.12-13.67.44-27.36.16-40.98-.81-2.19-.19-2.04-3.45.17-3.42h0Z"/>
      <path class="cls-1" d="m88.72,155.92c6.63-.14,13.26-.08,19.9.17,3.52.24,3.11,5.44-.41,5.12-6.49-.81-13.02-1.43-19.57-1.86-2.16-.17-2.08-3.35.08-3.43h0Z"/>
      <g>
        <path class="cls-14" d="m98.99,147.2c14.82,1.8,29.86,1.82,44.69.05"/>
        <path class="cls-3" d="m99.19,145.49c14.72,1.5,29.59,1.23,44.18-.79,1.4-.19,2.7.79,2.89,2.19.19,1.4-.79,2.7-2.19,2.89-15.1,1.52-30.34,1.21-45.3-.89-2.17-.34-1.8-3.59.41-3.4h0Z"/>
      </g>
      <g>
        <path class="cls-14" d="m107.69,138.31c9.37-1.1,18.66-2.84,27.8-5.19"/>
        <path class="cls-3" d="m107.49,136.6c9.26-1.37,18.41-3.37,27.36-5.98,1.36-.4,2.79.39,3.18,1.75.42,1.41-.46,2.9-1.9,3.22-9.32,2.11-18.76,3.59-28.24,4.41-2.18.16-2.56-3.05-.4-3.41h0Z"/>
      </g>
      <path class="cls-1" d="m114.86,129.33c12.73-4.13,25.32-8.67,37.74-13.62,1.32-.52,2.81.12,3.33,1.43.52,1.32-.12,2.81-1.43,3.33-12.75,4.48-25.65,8.52-38.65,12.14-2.12.56-3.09-2.57-.99-3.28h0Z"/>
      <g>
        <path class="cls-14" d="m123.29,120.4c7.37-3.02,14.81-5.87,22.31-8.57"/>
        <path class="cls-3" d="m122.64,118.81l22.1-9.4c3.33-1.29,5.14,3.69,1.74,4.83-.1.03-22.51,7.74-22.6,7.76-2.06.68-3.22-2.32-1.23-3.2h0Z"/>
      </g>
      <path class="cls-30" d="m-57.41,245.94c77.27-26.36,146.04-77.06,194.08-143.07"/>
      <path class="cls-13" d="m29.96,203.86c1.74,2.23,1.34,5.45-.89,7.19-2.23,1.74-5.45,1.34-7.19-.89-1.74-2.23-1.34-5.45.89-7.19,2.23-1.74,5.45-1.34,7.19.89Z"/>
      <path class="cls-13" d="m41.74,184.87c1.74,2.23,1.34,5.45-.89,7.19-2.23,1.74-5.45,1.34-7.19-.89-1.74-2.23-1.34-5.45.89-7.19,2.23-1.74,5.45-1.34,7.19.89Z"/>
      <path class="cls-13" d="m69.08,177.42c1.74,2.23,1.34,5.45-.89,7.19s-5.45,1.34-7.19-.89-1.34-5.45.89-7.19c2.23-1.74,5.45-1.34,7.19.89Z"/>
      <path class="cls-13" d="m73.39,160.51c1.81-1.41,4.41-1.09,5.82.72,1.41,1.81,1.09,4.41-.72,5.82-1.81,1.41-4.41,1.09-5.82-.72s-1.09-4.41.72-5.82Z"/>
      <path class="cls-13" d="m101.15,134.17c1.81-1.41,4.41-1.09,5.82.72s1.09,4.41-.72,5.82c-1.81,1.41-4.41,1.09-5.82-.72-1.41-1.81-1.09-4.41.72-5.82Z"/>
      <path class="cls-13" d="m112.13,131.75c2.62-2.04,6.39-1.57,8.43,1.04,2.04,2.62,1.57,6.39-1.04,8.43-2.62,2.04-6.39,1.57-8.43-1.04-2.04-2.62-1.57-6.39,1.04-8.43Z"/>
      <path class="cls-13" d="m115.15,119.29c1.81-1.41,4.41-1.09,5.82.72,1.41,1.81,1.09,4.41-.72,5.82s-4.41,1.09-5.82-.72c-1.41-1.81-1.09-4.41.72-5.82Z"/>
    </g>
  </g>
  <g class="cls-41">
    <g>
      <rect class="cls-10" x="57.02" y="155.54" width="111.06" height="114.89" transform="translate(-55.9 40.78) rotate(-16.51)"/>
      <g class="cls-47">
        <g>
          <line class="cls-26" x1="79.55" y1="83.81" x2="236.07" y2="162.52"/>
          <path class="cls-31" d="m69.61,90.56c7.58,3.84,4.57,9.79,12.15,13.62,7.58,3.84,10.59-2.12,18.17,1.72,7.58,3.84,4.57,9.79,12.14,13.62,7.58,3.84,10.59-2.12,18.17,1.72,7.58,3.84,4.57,9.79,12.15,13.62,7.58,3.84,10.59-2.11,18.17,1.72,7.58,3.84,4.57,9.79,12.14,13.62,7.58,3.84,10.59-2.11,18.17,1.72,7.58,3.84,4.57,9.79,12.15,13.63,7.58,3.84,10.59-2.11,18.18,1.72,7.58,3.84,4.57,9.79,12.15,13.63"/>
          <line class="cls-26" x1="66.91" y1="108.96" x2="223.42" y2="187.67"/>
          <path class="cls-31" d="m56.96,115.71c7.58,3.84,4.57,9.79,12.14,13.62,7.58,3.84,10.59-2.12,18.17,1.72,7.58,3.84,4.57,9.79,12.14,13.62,7.58,3.84,10.59-2.12,18.17,1.72,7.58,3.84,4.57,9.79,12.15,13.62,7.58,3.84,10.59-2.11,18.17,1.72,7.58,3.84,4.57,9.79,12.14,13.62,7.58,3.84,10.59-2.11,18.17,1.72,7.58,3.84,4.57,9.79,12.15,13.63,7.58,3.84,10.59-2.11,18.18,1.72,7.58,3.84,4.57,9.79,12.15,13.63"/>
          <line class="cls-26" x1="54.26" y1="134.11" x2="210.77" y2="212.82"/>
          <path class="cls-31" d="m44.32,140.86c7.58,3.84,4.57,9.79,12.14,13.62,7.58,3.84,10.59-2.12,18.17,1.72,7.58,3.84,4.57,9.79,12.14,13.62,7.58,3.84,10.59-2.12,18.17,1.72,7.58,3.84,4.57,9.79,12.15,13.62,7.58,3.84,10.59-2.11,18.17,1.72,7.58,3.84,4.57,9.79,12.14,13.62,7.58,3.84,10.59-2.11,18.17,1.72,7.58,3.84,4.57,9.79,12.15,13.63,7.58,3.84,10.59-2.11,18.18,1.72,7.58,3.84,4.57,9.79,12.15,13.63"/>
          <line class="cls-26" x1="41.61" y1="159.26" x2="198.12" y2="237.97"/>
          <path class="cls-31" d="m31.67,166.01c7.58,3.84,4.57,9.79,12.14,13.62,7.58,3.84,10.59-2.12,18.17,1.72,7.58,3.84,4.57,9.79,12.14,13.62,7.58,3.84,10.59-2.12,18.17,1.72,7.58,3.84,4.57,9.79,12.15,13.62,7.58,3.84,10.59-2.11,18.17,1.72,7.58,3.84,4.57,9.79,12.14,13.62,7.58,3.84,10.59-2.11,18.17,1.72,7.58,3.84,4.57,9.79,12.15,13.63,7.58,3.84,10.59-2.11,18.18,1.72,7.58,3.84,4.57,9.79,12.15,13.63"/>
          <line class="cls-26" x1="28.97" y1="184.41" x2="185.48" y2="263.11"/>
          <path class="cls-31" d="m19.02,191.16c7.58,3.84,4.57,9.79,12.15,13.62,7.58,3.84,10.59-2.12,18.17,1.72,7.58,3.84,4.57,9.79,12.14,13.62,7.58,3.84,10.59-2.12,18.17,1.72,7.58,3.84,4.57,9.79,12.15,13.62,7.58,3.84,10.59-2.11,18.17,1.72,7.58,3.84,4.57,9.79,12.14,13.62,7.58,3.84,10.59-2.11,18.17,1.72,7.58,3.84,4.57,9.79,12.15,13.63,7.58,3.84,10.59-2.11,18.18,1.72,7.58,3.84,4.57,9.79,12.15,13.63"/>
          <line class="cls-26" x1="16.32" y1="209.56" x2="172.83" y2="288.26"/>
          <path class="cls-31" d="m6.38,216.31c7.58,3.84,4.57,9.79,12.15,13.62,7.58,3.84,10.59-2.12,18.17,1.72,7.58,3.84,4.57,9.79,12.14,13.62,7.58,3.84,10.59-2.12,18.17,1.72,7.58,3.84,4.57,9.79,12.15,13.62,7.58,3.84,10.59-2.11,18.17,1.72,7.58,3.84,4.57,9.79,12.14,13.62,7.58,3.84,10.59-2.11,18.17,1.72,7.58,3.84,4.57,9.79,12.15,13.63,7.58,3.84,10.59-2.11,18.18,1.72,7.58,3.84,4.57,9.79,12.15,13.63"/>
          <line class="cls-26" x1="3.67" y1="234.71" x2="160.18" y2="313.41"/>
          <path class="cls-31" d="m-6.27,241.45c7.58,3.84,4.57,9.79,12.14,13.62,7.58,3.84,10.59-2.12,18.17,1.72,7.58,3.84,4.57,9.79,12.14,13.62,7.58,3.84,10.59-2.12,18.17,1.72,7.58,3.84,4.57,9.79,12.15,13.62,7.58,3.84,10.59-2.11,18.17,1.72,7.58,3.84,4.57,9.79,12.14,13.62,7.58,3.84,10.59-2.11,18.17,1.72,7.58,3.84,4.57,9.79,12.15,13.63,7.58,3.84,10.59-2.11,18.18,1.72,7.58,3.84,4.57,9.79,12.15,13.63"/>
        </g>
      </g>
      <path class="cls-16" d="m75.39,283.92c-6.8-21.76-13.92-45.8-20.06-67.76,0,0,.43-.13.43-.13,4.91,15.55,10.68,35.01,15.28,50.75,1.64,5.65,3.25,11.32,4.84,16.99l-.49.15h0Z"/>
      <g>
        <path class="cls-23" d="m96.87,158.66c-3.91-10.74-11.58-23.01-23.59-25.57-2.38-.51-5.17-.76-7.36.52-5.71,3.34-1.62,10.26,2.01,13.28,6.37,5.31,14.88,7.33,22.61,9.76,1.21.38,3.86,1.18,6.33,2"/>
        <path class="cls-27" d="m96.67,159.18c-1,2.1-1.49,3.52-1.68,5.75-.17,2.08-.09,4.24.12,6.32.48,4.71,1.99,9.26,2.31,14,.29,4.32.08,8.84-.97,13.05-.31,1.24-.74,2.43-1.17,3.63"/>
        <path class="cls-27" d="m97.17,158.76c3.76,2.56,7.24,5.61,10.52,8.76,3.03,2.92,6.32,5.82,9.98,7.93,3.66,2.12,7.55,3.93,11.64,5,1.3.34,3.24.86,4.41.72"/>
        <path class="cls-23" d="m96.98,159c-3.44-10.9-4.83-25.3,3.13-34.65,1.58-1.86,3.63-3.75,6.16-4.07,6.57-.83,7.54,7.15,6.5,11.76-1.82,8.09-7.33,14.87-11.98,21.52-.73,1.04-2.34,3.29-3.8,5.44"/>
      </g>
    </g>
  </g>
  <g>
    <path class="cls-1" d="m189.92,121.55c1.37,10.89-4.22,22.94-13.99,28.38,6.05,4.39,11.97,9.51,14.82,16.42,2.85,6.9,1.71,15.96-4.39,20.27,5.7,4.48,10.44,10.53,12.09,17.6.61,2.59.73,5.32.38,7.97,9.1-5.11,20.24-8.5,26.89-7.91-3.5-5.36-6.33-11.56-5.82-17.94s5.3-12.76,11.68-13.21c-4.55-5.88-8.03-12.58-10.24-19.68-2.02-6.49-2.87-13.92.55-19.8-11.71.59-23.59-3.9-31.98-12.09Z"/>
    <path class="cls-1" d="m126.81,197.6c8.57,3.64,19.7,1.87,26.39-4.84,2.18,5.95,4.99,11.97,9.96,15.89,4.97,3.93,12.63,5.09,17.56,1.11,2.34,5.69,6.18,10.96,11.56,13.94,1.97,1.09,4.17,1.83,6.41,2.16-6.28,6.24-11.62,14.55-12.68,20.11-3.56-4.1-7.96-7.84-13.29-8.9-5.33-1.06-11.63,1.37-13.48,6.48-3.75-5.07-8.41-9.47-13.69-12.92-4.83-3.15-10.7-5.56-16.29-4.14,3.19-9.42,2.28-20.15-2.46-28.89Z"/>
    <path class="cls-13" d="m225.94,223.97c3.52,6.13,1.41,13.95-4.72,17.47-6.13,3.52-13.95,1.41-17.47-4.72-3.52-6.13-1.41-13.95,4.72-17.47,6.13-3.52,13.95-1.41,17.47,4.72Z"/>
    <circle class="cls-13" cx="198.16" cy="207.78" r="9.56" transform="translate(-34 376.73) rotate(-82.4)"/>
    <circle class="cls-13" cx="188.27" cy="227.19" r="11.39" transform="translate(-69.97 84.45) rotate(-21.42)"/>
  </g>
  <g class="cls-38">
    <g>
      <path class="cls-9" d="m333.36,121.23c-.81-1.56-2.75-2.43-4.45-2,2.63-1.65,4.12-4.96,3.61-8.03-.37-2.24-2.09-4.47-4.36-4.48,1.52-1.82,2.31-4.23,2.18-6.59-.13-2.37-1.2-4.67-2.91-6.3-1.2-1.15-2.91-2-4.51-1.57l-44.84-6.2c-1.43-.85-3.3-.5-4.77.28-2.09,1.11-3.74,3.04-4.51,5.28-.77,2.24-.66,4.77.31,6.94-2.18-.6-4.45,1.08-5.41,3.13-1.32,2.81-.79,6.4,1.3,8.71-1.52-.88-3.63-.56-4.83.72-1.2,1.28-4.72,8.05,3.63,11.48l62.98,8.7c8.96-1.04,7.41-8.51,6.6-10.07Z"/>
      <g>
        <path class="cls-15" d="m255.17,203.61c.86,25.61.54,54.13-.23,79.75l42.79,5.91c6.21-24.87,13.63-52.4,21.4-76.83l-63.96-8.84Z"/>
        <line class="cls-35" x1="287.28" y1="207.03" x2="276.33" y2="286.32"/>
      </g>
      <g>
        <g>
          <path class="cls-8" d="m319.92,107.65h6.05c2.48,0,4.5,2.02,4.5,4.5v.06c0,2.48-2.02,4.5-4.5,4.5h-6.05v-9.06h0Z" transform="translate(18.41 -43.45) rotate(7.87)"/>
          <line class="cls-21" x1="323.6" y1="111.82" x2="327.49" y2="112.27"/>
        </g>
        <g>
          <path class="cls-8" d="m265.51,100.44h6.05c2.48,0,4.5,2.02,4.5,4.5v.06c0,2.48-2.02,4.5-4.5,4.5h-6.05v-9.06h0Z" transform="translate(524.67 246.02) rotate(-172.13)"/>
          <line class="cls-21" x1="272.39" y1="105.34" x2="268.49" y2="104.89"/>
        </g>
      </g>
      <path class="cls-8" d="m322.16,94.77l-44.5-6.15c-5.37,12.45-6.54,25.6-1.68,38.25l37.18,5.14c8.11-10.86,10.79-23.8,8.99-37.24Z"/>
      <g>
        <polygon class="cls-11" points="300.03 100.35 296.92 105.62 301.61 106.27 300.03 100.35"/>
        <g>
          <path class="cls-16" d="m309.73,104.66c-.04.6-.56,1.05-1.16,1.01-.6-.04-1.05-.56-1.01-1.16.04-.6.56-1.05,1.16-1.01.6.04,1.05.56,1.01,1.16Z"/>
          <path class="cls-9" d="m305.5,97.7s.04,0,.07,0c.4-.01.8,0,1.2.01.79.04,1.59.16,2.36.34,1.56.37,3.06,1.01,4.4,1.89.37.25.92.5,1.02.98.05.21,0,.44-.16.6-.54.57-1.53.47-2.23.39-1.73-.21-3.38-.8-4.98-1.47-.54-.22-1.08-.45-1.57-.76-.35-.23-.8-.56-.87-1.01-.07-.45.32-.9.76-.96Z"/>
        </g>
        <g>
          <path class="cls-16" d="m289.98,101.96c-.04.6.41,1.12,1.01,1.16.6.04,1.12-.41,1.16-1.01.04-.6-.41-1.12-1.01-1.16s-1.12.41-1.16,1.01Z"/>
          <path class="cls-9" d="m295.16,95.66s-.04-.01-.07-.01c-.39-.07-.79-.12-1.19-.16-.79-.07-1.59-.07-2.38,0-1.6.14-3.17.56-4.62,1.24-.4.19-.98.37-1.15.83-.08.2-.06.43.07.61.45.64,1.45.68,2.16.7,1.74.04,3.46-.32,5.14-.75.56-.15,1.13-.29,1.66-.53.38-.17.87-.44,1-.87.13-.43-.19-.94-.62-1.06Z"/>
        </g>
      </g>
      <path class="cls-17" d="m330.75,130.57l-68.84-9.51c2.14,16.36,4.29,32.72,6.43,49.08,0,0-9.18,23.45-13.38,33.44l60.1,8.3c-1.34-10.75-3.81-35.81-3.81-35.81,6.5-15.17,13-30.34,19.5-45.5Z"/>
      <g>
        <g>
          <rect class="cls-17" x="244.06" y="139.97" width="19.32" height="53.27" transform="translate(16.68 -22.98) rotate(5.36)"/>
          <path class="cls-9" d="m262.35,222.33c-.49-4.1-1.98-8.08-4.31-11.49l-11.66,1.47c-.36,1.1-.48,2.26-.54,3.41-.23,4.77.49,9.59,2.11,14.09.59,1.65,1.34,3.29,2.59,4.51.66.64,1.49,1.16,2.41,1.21,1.04.06,2.05-.5,2.73-1.28.69-.78,1.1-1.77,1.42-2.76.77-2.38,1.09-4.96.51-7.4.86.7,1.76,1.42,2.84,1.66.46.1.98.1,1.34-.2.25-.2.38-.51.47-.82.22-.78.16-1.62.07-2.42Z"/>
          <path class="cls-13" d="m262.65,191.57c-8.1-.6-16.27-.28-24.3.95,1.1,7.41,2.35,14.8,3.75,22.16,6.57-.23,13.13-.65,19.67-1.25l.88-21.86Z"/>
        </g>
        <g>
          <path class="cls-15" d="m247.48,124.15c-1.66,5.33-3.32,10.65-4.98,15.97,7.61,4.15,18.62,7.11,26.28,3.43l-2.16-21.44h0c-2.99-1.43-6.16-2.43-9.42-2.97l-1.4-.23c-3.68-.54-7.21,1.68-8.32,5.24Z"/>
          <path class="cls-13" d="m249,121.04c.24-1.74,4.55-2.57,9.64-1.87,5.08.7,9.01,2.68,8.77,4.41-.24,1.74-4.55,2.57-9.64,1.87-5.08-.7-9.01-2.68-8.77-4.41Z"/>
        </g>
        <g>
          <path class="cls-16" d="m258.63,191.6c-5.79.13-11.79.38-17.58.77-.12,0-.23-.09-.24-.21,0-.11.07-.21.18-.24,1.45-.3,2.91-.51,4.38-.68,4.4-.48,8.86-.6,13.27-.15.3.03.29.51-.02.51h0Z"/>
          <path class="cls-16" d="m244.97,214.32c4.81-.66,9.64-.96,14.48-.9.13,0,.23.1.23.23,0,.11-.09.2-.19.22-2.4.36-4.82.57-7.23.74-2.42.15-4.84.26-7.27.22-.31,0-.33-.48-.02-.51h0Z"/>
          <path class="cls-16" d="m246.51,223.17c.94,3.56,3.36,15.16,8.84,11.12.2-.19.5.12.32.32-1.01,1.28-3,1.72-4.41.81-1.41-.83-2.31-2.18-2.99-3.53-1.23-2.76-1.98-5.66-2.27-8.64-.03-.3.44-.38.5-.08h0Z"/>
          <g>
            <path class="cls-16" d="m250.4,125.64c-.96,4.75-2.22,9.42-3.77,14.01-.04.1-.15.16-.25.12-.09-.03-.14-.13-.13-.22.44-2.39,1.05-4.73,1.64-7.07.65-2.33,1.28-4.66,2.08-6.95.08-.25.48-.15.43.11h0Z"/>
            <path class="cls-16" d="m265.59,142.19c-.5-5.05-.71-10.11-.61-15.18,0-.11.09-.19.2-.19.1,0,.18.08.19.17.3,2.52.42,5.05.55,7.58.08,2.53.18,5.06.1,7.6,0,.26-.42.29-.44.02h0Z"/>
            <path class="cls-16" d="m254.28,126.99c-.68,4.78-1.66,9.51-2.93,14.17-.03.1-.14.16-.24.13-.09-.03-.15-.12-.14-.21.3-2.4.77-4.77,1.22-7.14.51-2.36,1-4.72,1.66-7.05.07-.25.47-.18.43.09h0Z"/>
            <path class="cls-16" d="m260.65,142.69c-.08-4.89.13-9.77.66-14.63.01-.11.11-.18.22-.17.1.01.17.09.17.19.09,2.45,0,4.88-.08,7.32-.13,2.44-.24,4.87-.53,7.3-.02.26-.44.25-.44-.02h0Z"/>
            <path class="cls-16" d="m257.97,127.53c-.24,4.96-.78,9.88-1.62,14.77-.02.11-.12.18-.23.16-.1-.02-.16-.1-.16-.2.08-2.48.33-4.95.56-7.41.29-2.46.56-4.92,1.01-7.37.04-.26.45-.22.44.05h0Z"/>
          </g>
          <path class="cls-16" d="m253.18,120.14c3.05-.4,6.2.03,9.09,1.05.96.36,1.91.79,2.75,1.41.09.06.11.19.04.27-.06.08-.16.1-.24.06-3.64-1.63-7.65-2.18-11.61-2.35-.26,0-.29-.41-.03-.44h0Z"/>
          <path class="cls-16" d="m246.3,209.88c0,.73-.59,1.32-1.32,1.32s-1.32-.59-1.32-1.32.59-1.32,1.32-1.32,1.32.59,1.32,1.32Z"/>
        </g>
      </g>
      <g>
        <g>
          <rect class="cls-17" x="316.54" y="149.99" width="19.32" height="53.27" transform="translate(37.12 -55.83) rotate(10.37)"/>
          <path class="cls-9" d="m302.77,227.91c1.58-3.81,4.09-7.24,7.26-9.89l10.83,4.57c.05,1.15-.15,2.3-.41,3.43-1.07,4.66-3.07,9.1-5.85,12.99-1.02,1.42-2.18,2.81-3.72,3.64-.81.44-1.75.71-2.65.52-1.02-.22-1.83-1.04-2.28-1.98-.45-.94-.58-2-.62-3.04-.1-2.5.3-5.07,1.51-7.26-1.02.44-2.08.89-3.19.83-.47-.03-.97-.17-1.24-.55-.18-.26-.23-.59-.23-.91,0-.81.28-1.6.59-2.35Z"/>
          <path class="cls-13" d="m310.83,198.23c7.96,1.62,15.73,4.14,23.13,7.5-3.07,6.83-6.28,13.61-9.62,20.31-6.26-2-12.46-4.18-18.59-6.54l5.08-21.28Z"/>
        </g>
        <g>
          <path class="cls-15" d="m343.7,137.45c.15,5.58.31,11.15.46,16.73-8.45,1.93-19.85,1.8-26.23-3.82l7.89-20.05h0c3.26-.56,6.59-.67,9.88-.3l1.41.16c3.69.48,6.49,3.57,6.59,7.3Z"/>
          <path class="cls-13" d="m343.09,134.04c.24-1.74-3.69-3.71-8.77-4.41-5.08-.7-9.4.14-9.64,1.87-.24,1.74,3.69,3.71,8.77,4.41,5.08.7,9.4-.14,9.64-1.87Z"/>
        </g>
        <g>
          <path class="cls-16" d="m315.49,198.96c5.8,1.12,11.45,3.08,16.7,5.78.24.12.08.51-.18.41-2.45-.87-5.86-2.14-8.29-2.95-2.76-.98-5.56-1.83-8.35-2.75-.29-.09-.18-.56.13-.49h0Z"/>
          <path class="cls-16" d="m321.89,225.59c-3.5-.98-6.93-2.22-10.3-3.58-1.12-.46-2.24-.92-3.34-1.44-.11-.05-.16-.19-.11-.3.05-.1.17-.15.27-.12,2.34.64,4.63,1.42,6.91,2.23,2.27.84,4.53,1.71,6.74,2.73.28.12.12.57-.17.48h0Z"/>
          <path class="cls-16" d="m318.53,233.38c-1.12,2.78-2.66,5.35-4.62,7.65-1.04,1.1-2.28,2.15-3.86,2.54-1.6.47-3.39-.51-4-2.02-.11-.25.25-.44.4-.22,4.12,5.42,9.71-5.01,11.62-8.17.14-.27.58-.07.46.22h0Z"/>
          <g>
            <path class="cls-16" d="m342.32,138.51c.17,4.84.04,9.68-.39,14.5-.01.11-.11.19-.21.17-.1-.01-.17-.09-.18-.18-.13-2.42-.08-4.84-.05-7.26.08-2.42.15-4.83.39-7.25.02-.26.43-.26.44.01h0Z"/>
            <path class="cls-16" d="m322.22,149.94c1.35-4.89,2.99-9.68,4.92-14.38.04-.1.16-.15.26-.1.09.04.14.14.11.23-.63,2.46-1.43,4.86-2.22,7.27-.84,2.39-1.66,4.79-2.65,7.12-.1.25-.49.12-.42-.14h0Z"/>
            <path class="cls-16" d="m338.21,138.74c-.11,4.83-.52,9.64-1.24,14.42-.02.11-.12.18-.22.16-.1-.02-.16-.1-.16-.19.01-2.42.2-4.82.37-7.23.22-2.4.44-4.8.82-7.19.04-.26.45-.23.44.04h0Z"/>
            <path class="cls-16" d="m326.81,151.86c.89-4.81,2.07-9.54,3.55-14.2.03-.1.14-.16.25-.12.09.03.15.12.13.22-.4,2.41-.97,4.79-1.53,7.16-.61,2.36-1.2,4.73-1.97,7.05-.08.25-.48.16-.43-.11h0Z"/>
            <path class="cls-16" d="m334.52,138.26c-.59,4.93-1.48,9.8-2.67,14.62-.03.1-.13.17-.24.14-.09-.02-.15-.11-.15-.21.25-2.47.68-4.91,1.09-7.35.46-2.43.91-4.87,1.53-7.28.06-.26.47-.19.43.08h0Z"/>
          </g>
          <path class="cls-16" d="m340.62,132.86c-3.85-.96-7.86-1.57-11.8-1.03-.11.02-.21-.05-.23-.16-.02-.09.04-.18.13-.22.98-.35,2.01-.5,3.04-.57,3.07-.16,6.2.32,9.02,1.56.24.11.1.49-.15.41h0Z"/>
          <path class="cls-16" d="m322.03,220.47c-.21.7.19,1.43.89,1.64s1.43-.19,1.64-.89c.21-.7-.19-1.43-.89-1.64-.7-.21-1.43.19-1.64.89Z"/>
        </g>
      </g>
      <g>
        <line class="cls-20" x1="267.53" y1="169.88" x2="312.18" y2="176.05"/>
        <rect class="cls-32" x="285.76" y="169.59" width="8.22" height="6.57" rx="1.62" ry="1.62" transform="translate(26.39 -38.04) rotate(7.87)"/>
      </g>
      <g>
        <g>
          <path class="cls-9" d="m312.45,131.87c-.51-1.03-1.35-1.96-2.46-2.29,2.23-.2,3.84-2.5,3.88-4.74.04-2.24-1.15-4.33-2.63-6-.96-1.09-2.39-2.13-3.75-1.63l-19.64-3c-1.17-.86-2.83-.24-4.05.55-1.88,1.21-3.59,2.9-4.15,5.07-.57,2.16.37,4.81,2.45,5.61-1.15.02-2.22.68-2.99,1.54-1.18,1.31-1.77,3.2-1.3,4.9.47,1.7,2.12,3.07,3.88,2.99-1.76,1.17-2.57,3.64-1.71,5.57.85,1.93,3.36,2.99,5.29,2.12-1.52,1.77-1.49,4.68.06,6.42,1.06,1.19,2.74,1.73,4.32,1.54,0,.02,0,.03-.01.04-.24,1.73.97,3.33,2.71,3.57,1.66.23,3.18-.88,3.52-2.5,1.48.64,3.28.6,4.65-.28,1.97-1.26,2.78-4.05,1.8-6.17,1.62,1.35,4.32,1.02,5.67-.61,1.35-1.63,1.24-4.22-.14-5.83,1.67.56,3.63-.32,4.54-1.82.91-1.51.85-3.49.07-5.07Z"/>
          <path class="cls-9" d="m309.65,114c-.82-.22-1.63-.55-2.26-1.11-.52-.46-.88-1.07-1.28-1.64-.82-1.17-1.82-2.26-3.1-2.89-1.24-.61-2.77-.74-3.99-.11h0c-.95-1.07-2.5-1.46-3.92-1.27-1.42.19-2.71.9-3.86,1.75-.56.41-1.1.87-1.74,1.14-.78.34-1.65.38-2.5.34-1.54-.09-3.1-.5-4.4-1.14,0,1.97.9,3.92,2.35,5.25,1.46,1.33,3.45,2.04,5.43,1.99.98-.03,1.97-.24,2.83-.71,1.43-.78,3.14-3.2,4.98-2.96h0c2.64.44,2.7,3.25,3.85,4.49.67.72,1.53,1.24,2.46,1.58,1.85.68,3.97.64,5.78-.16s3.27-2.36,3.91-4.23c-1.43.19-3.05.08-4.53-.32Z"/>
        </g>
        <g>
          <path class="cls-16" d="m285.34,114.43c2.5,1.76,6.21,2.28,8.65.23.83-.65,1.65-1.43,2.69-1.87.17-.08.31.19.14.28-1.79,1.15-3.14,3.3-5.48,3.51-2.23.33-4.61-.35-6.23-1.87-.16-.15.05-.4.23-.28h0Z"/>
          <path class="cls-16" d="m299.52,112.97c1.44.83,1.76,2.54,2.61,3.76,1.62,1.83,4.27,2.44,6.69,2.12.19-.03.25.26.07.31-2.49.72-5.58.06-7.29-2.03-.88-1.25-1.06-2.93-2.27-3.87-.18-.13,0-.41.2-.3h0Z"/>
          <path class="cls-16" d="m303.96,108.71c.48.29.96.59,1.4.98.89.72,1.25,1.9,1.96,2.72.33.38.77.72,1.21,1.03h-.12s-.12.09-.11.14c0-.27.41-.21.31.05.01,0,.02-.11.01-.03,0,.09-.12.18-.2.15-1.81-.45-2.42-2.37-3.51-3.61-.37-.39-.79-.74-1.19-1.15-.15-.14.05-.39.22-.28h0Z"/>
          <path class="cls-16" d="m301.7,110.58c.97.12,1.89.88,2.24,1.81.08.22.69,1.31.08,1.05-.44-.42-.72-1.01-1.11-1.44-.35-.44-.83-.73-1.34-1.09-.16-.1-.05-.36.13-.33h0Z"/>
          <path class="cls-16" d="m310.71,116.56c-1.02.43-2.44.45-3.29-.36-.1-.12.03-.3.17-.25,1,.25,2,.19,3.06.26.18.01.23.28.06.35h0Z"/>
          <path class="cls-16" d="m296.25,111.07c-1.12.58-1.89,1.19-2.88,1.98-.07.05-.18.03-.23-.05.26-1.2,1.77-2.17,2.99-2.27.19-.02.27.25.11.34h0Z"/>
          <path class="cls-16" d="m293.11,109.62c-1.11.89-2.39,2.14-4.04,1.74-.17-.03-.17-.28-.01-.31.69-.17,1.37-.3,1.96-.68.63-.34,1.2-.95,1.96-1.08.1-.02.19.05.21.15.01.08-.02.15-.08.19h0Z"/>
        </g>
        <g>
          <path class="cls-16" d="m290.42,124.09c-1.82-.31-2.18-3.28-.53-4.06.08-.04.18,0,.21.08.03.06.01.13-.03.18-.9,1-.7,2.77.46,3.47.18.09.08.37-.11.34h0Z"/>
          <path class="cls-16" d="m286.17,135.11c-2.65-.53-2.12-5.22.63-5,.18.01.19.29.01.32-2.01.35-2.32,3.49-.53,4.34.19.08.09.38-.11.34h0Z"/>
          <path class="cls-16" d="m304.54,129.16c1.33,1.78-.31,5.09-2.66,4.32-.17-.05-.12-.32.05-.31,1.98.06,2.86-2.19,2.29-3.85-.08-.19.2-.34.32-.17h0Z"/>
          <path class="cls-16" d="m298.73,141.57c.02,2.12-2,4.34-4.23,3.75-.09-.02-.14-.11-.12-.19.02-.07.08-.12.15-.12,2.05-.05,3.31-1.63,3.85-3.49.06-.2.36-.14.35.06h0Z"/>
        </g>
      </g>
      <g>
        <path class="cls-17" d="m331.27,47.82l-49.64-6.86c-5.68,15.11-7.07,31.82-3.97,47.66l44.5,6.15c7.29-14.41,10.48-30.86,9.1-46.95Z"/>
        <g class="cls-39">
          <g>
            <path class="cls-25" d="m314.88,94.27c5.29-14.96,8.19-31.69,8.3-47.86"/>
            <path class="cls-25" d="m291.51,41.88c-4.32,15.67-6.08,32.65-5.02,48.57"/>
            <path class="cls-25" d="m305.64,92.86c3.16-15.22,5.67-31.95,7.17-47.88"/>
            <path class="cls-25" d="m302.28,43.61c-2.89,15.81-5.02,32.67-6.09,48.22"/>
          </g>
        </g>
        <path class="cls-15" d="m335.68,54.64c-1.24-2.64-2.87-5.23-5.15-7.01l-48.17-6.65c-2.9,1.04-5.32,3.23-7.35,5.59-1.03,1.19-1.99,2.45-2.63,3.89-.64,1.44-.92,3.07-.55,4.59.15.62.42,1.22.89,1.66.6.56,1.46.77,2.29.79,2.93.07,5.52-1.88,7.45-4.08,2.74-3.13,4.64-6.91,7.19-10.19-2.24,4.33-4.43,8.9-4.51,13.78-.02,1.08.07,2.18.46,3.2.39,1.01,1.09,1.93,2.07,2.41,1.29.63,2.89.38,4.13-.33s2.2-1.84,3.05-3.01c3.23-4.47,5.11-9.75,6.95-14.94-.96,5.07-2.39,10.55-.94,15.7.32,1.13.79,2.24,1.59,3.09.8.85,1.98,1.41,3.14,1.24,1.5-.22,2.6-1.55,3.24-2.93.74-1.6,1.08-3.36,1.27-5.12.25-2.31,0-8.37-.18-10.94.61,4.6,1.87,12.46,3.24,16.18.5,1.35,1.12,2.69,2.13,3.72,1.01,1.03,2.48,1.69,3.89,1.43,1.06-.2,1.99-.89,2.64-1.76.64-.87,1.03-1.91,1.3-2.95,1.23-4.72.36-9.71-.64-14.49,1.58,3.85,2.39,7.99,4.19,11.75,1.26,2.64,3.24,5.22,6.08,5.93.8.2,1.68.24,2.41-.14.56-.29.99-.8,1.3-1.36.77-1.37.94-3.02.71-4.57-.23-1.55-.82-3.03-1.49-4.45Z"/>
        <line class="cls-22" x1="281.83" y1="40.48" x2="330.75" y2="47.23"/>
        <path class="cls-13" d="m310.3,40.79c-.21,1.54-1.64,2.62-3.18,2.41-1.54-.21-2.62-1.64-2.41-3.18.21-1.54,1.64-2.62,3.18-2.41,1.54.21,2.62,1.64,2.41,3.18Z"/>
        <line class="cls-21" x1="277.67" y1="88.62" x2="322.16" y2="94.77"/>
      </g>
    </g>
  </g>
  <g class="cls-43">
    <g>
      <path class="cls-15" d="m417.95,160.66l-14.22-26.45c-.98-1.82-2.24-3.3-3.73-4.5-2.22-1.79-4.96-2.9-7.79-3.18-1.41-.14-2.85-.08-4.26.19-1.41.27-2.8.76-4.17,1.5-1.82.98-3.3,2.24-4.5,3.73-1.79,2.22-2.9,4.96-3.18,7.79-.14,1.41-.08,2.85.19,4.26.27,1.41.76,2.8,1.49,4.17l83.03,154.45c3.67,6.82,1.11,15.33-5.71,18.99-6.82,3.67-15.33,1.11-18.99-5.71l-83.03-154.45c-2.78-5.17-4.41-10.72-4.92-16.26-.77-8.32.91-16.61,4.73-23.9,1.91-3.64,4.37-7.04,7.32-10.05,2.95-3.01,6.41-5.63,10.29-7.72,5.17-2.78,10.72-4.41,16.26-4.92,8.32-.77,16.61.91,23.9,4.73,3.64,1.91,7.04,4.37,10.05,7.32,3.01,2.95,5.63,6.41,7.72,10.29l14.22,26.45c3.67,6.82,1.11,15.33-5.71,18.99-6.82,3.67-15.33,1.11-18.99-5.71h0Z"/>
      <g class="cls-48">
        <g>
          <polygon class="cls-13" points="427.23 235.55 406.39 265.23 400.39 254.66 421.29 225.02 427.23 235.55"/>
          <path class="cls-13" d="m412.6,208.18c-7.05,9.81-14.05,19.66-21.03,29.54l-5.94-10.63c7.01-9.86,14.05-19.69,21.14-29.46l5.83,10.55Z"/>
          <path class="cls-13" d="m398.3,180.76c-7.2,9.68-14.31,19.46-21.38,29.28l-5.84-10.74c7.12-9.79,14.31-19.53,21.6-29.12l5.62,10.57Z"/>
          <path class="cls-13" d="m384.79,153.37c-7.61,9.27-14.96,18.91-22.21,28.63-1.9-3.65-3.78-7.32-5.64-11.05,3.69-4.83,7.42-9.62,11.24-14.31,3.83-4.67,7.72-9.28,11.85-13.5,1.4,3.25,3.07,6.76,4.76,10.23Z"/>
          <path class="cls-13" d="m379.3,135.6c-3.08-.33-6.21-.11-9.38.56-1.55.35-3.12.81-4.71,1.38-1.53.59-3.05,1.21-4.59,2.13-2.44,1.43-8.58,5.56-11.65,12.43-.26-.71-.52-1.34-.79-2.11l-.39-1.13-.48-1.54c-.19-.62-.31-1.16-.46-1.75-.14-.58-.28-1.16-.37-1.74-.1-.59-.2-1.17-.24-1.76-.04-.29-.02-.59-.1-.89l-.05-.89c0-.88.01-1.81.04-2.64.02-.62,0-1.23.08-1.86.12-1.26.23-2.51.41-3.77,6.01-3.27,12.42-5.06,18.46-5.11,6.05-.07,11.7,1.58,16.31,4.61-.96,1.2-1.72,2.46-2.1,4.08Z"/>
          <path class="cls-13" d="m388.39,128.49c-1.74-5.25-4.99-10.18-9.56-14.14-4.56-3.97-10.45-6.93-17.26-8.29l1.9-1.54c.64-.5,1.32-.94,1.98-1.4,1.32-.95,2.74-1.7,4.15-2.49.72-.36,1.44-.7,2.17-1.04l1.09-.5,1.12-.43c.75-.28,1.5-.57,2.25-.83l2.29-.67c5.47,4.18,9.56,9.33,12.1,14.82,2.55,5.49,3.55,11.28,3.02,16.81-1.73-.43-3.53-.6-5.25-.29Z"/>
          <path class="cls-13" d="m400.63,134.3c1.76-2.25,3.23-4.58,4.52-7.23,1.22-2.56,2.25-5.4,2.89-8.32,1.32-5.88,1.31-12.45-.4-19.08,5.78,2.44,11.01,6.08,15.26,10.4-1.15,6.69-3.58,12.61-6.85,17.69-3.3,5.04-6.73,10-10.2,14.89-.98-1.68-1.96-3.36-2.96-5.01l-.74-1.24c-.07-.12-.11-.18-.15-.23l-.13-.18-.25-.35-.48-.72-.52-.63Z"/>
          <path class="cls-13" d="m414.44,159.26c7.07-9.8,14.17-19.54,21.01-29.6,2.06,3.62,4.06,7.22,6.03,10.79-7.03,9.86-14.17,19.57-21.13,29.51l-5.91-10.71Z"/>
        </g>
      </g>
      <path class="cls-16" d="m420.44,287.28c-11.63-20.94-24.1-44.15-35.13-65.42-.06-.11-.01-.25.1-.3.11-.06.24-.02.3.09,8.37,14.95,18.47,33.74,26.56,48.95,2.9,5.47,5.77,10.95,8.62,16.44.06.12.02.28-.11.34-.12.06-.27.02-.34-.1h0Z"/>
      <path class="cls-16" d="m384.83,160.73c4.1,7.05,8.9,15.99,12.7,23.26,1.36,2.61,2.69,5.24,4,7.88.06.11,0,.25-.1.3-.11.05-.24.01-.3-.09-1.48-2.55-2.94-5.11-4.37-7.68-2.14-3.85-6.34-11.65-8.38-15.55-1.37-2.61-2.7-5.23-4.01-7.87-.14-.28.29-.53.45-.24h0Z"/>
      <path class="cls-16" d="m386.74,98.34c8.21-1.13,16.86.6,24.02,4.79.24.14.04.52-.21.4-7.41-3.48-15.58-5.1-23.77-4.68-.31.02-.36-.47-.05-.51h0Z"/>
    </g>
  </g>
  <g class="cls-18">
    <g>
      <path class="cls-28" d="m655.3,34.63c-22.12-10.91-44.64-21.01-67.51-30.26"/>
      <path class="cls-33" d="m582.24-115c32.29,68.96,73.17,154.96,90.88,194.73,6.78,14.32,21.84,45.34,40.1,82.63"/>
    </g>
  </g>
  <g class="cls-42">
    <path class="cls-15" d="m-56.75-85.63l15.71-23.83c1.09-1.64,2.41-2.94,3.91-3.94,2.25-1.5,4.94-2.32,7.64-2.35,1.35-.02,2.7.16,4.01.54,1.31.38,2.59.96,3.83,1.77,1.64,1.09,2.94,2.41,3.94,3.91,1.5,2.25,2.32,4.94,2.35,7.64.02,1.35-.16,2.7-.54,4.01-.38,1.31-.96,2.59-1.77,3.83L-109.38,45.11c-4.05,6.15-2.35,14.42,3.8,18.47,6.15,4.05,14.42,2.35,18.47-3.8L4.6-79.39c3.07-4.66,5.08-9.78,6.04-14.98,1.44-7.81.55-15.8-2.45-23.02-1.5-3.61-3.54-7.04-6.08-10.14-2.54-3.1-5.59-5.88-9.08-8.18-4.66-3.07-9.78-5.08-14.98-6.04-7.81-1.44-15.8-.55-23.02,2.45-3.61,1.5-7.04,3.54-10.14,6.08-3.1,2.54-5.88,5.59-8.18,9.08l-15.71,23.83c-4.05,6.15-2.35,14.42,3.8,18.47,6.15,4.05,14.42,2.35,18.47-3.8h0Z"/>
  </g>
  <g class="cls-46">
    <g>
      <path class="cls-3" d="m-29.29,36.72L16.94,1.18c1.01-.77,2.45-.59,3.23.42.77,1.01.59,2.45-.42,3.23-.02.02-46.96,34.59-46.99,34.61-1.79,1.28-3.8-1.33-2.05-2.72h0Z"/>
      <path class="cls-1" d="m-23.51,21.37L9.86-10.63c2.21-2.05,5.34,1.18,3.19,3.32,0,0-34.21,31.16-34.22,31.17-1.64,1.46-3.91-.92-2.33-2.49h0Z"/>
      <path class="cls-1" d="m-51.08,85.37L8.02,43.49c2.5-1.69,5.11,1.93,2.66,3.76,0,0-59.8,40.92-59.81,40.92-1.83,1.22-3.76-1.47-1.95-2.8h0Z"/>
      <path class="cls-3" d="m-44.65,69.29L4.61,29.71c2.4-1.84,5.21,1.62,2.88,3.59,0,0-50.02,38.66-50.03,38.67-1.75,1.32-3.83-1.25-2.11-2.68h0Z"/>
      <path class="cls-3" d="m-16.64,4l49.26-39.58c2.4-1.84,5.21,1.62,2.88,3.59,0,0-50.02,38.66-50.03,38.67-1.75,1.32-3.83-1.25-2.11-2.68h0Z"/>
      <path class="cls-33" d="m-.1-31.14C-36.21,53.34-86.35,169.29-101.14,201.07"/>
    </g>
  </g>
  <g class="cls-37">
    <g>
      <path class="cls-12" d="m38.96,178.51c-7.01-29.11-30.46-61.66-48.52-87.46-1.77-2.53-4.97-3.59-7.9-2.63-29.75,9.78-66.42,22.19-89.65,41.13-1.95,1.59-3.26,3.88-3.42,6.38-.21,3.51,1.49,5.42,8.38,7.72,1.87.63,2.33,1.58,2.56,2.78.12.61.11,1.23,0,1.84-1.05,5.55-3.23,10.77-5.32,15.99-6.95,17.4-12.9,35.2-17.81,53.28-.89,3.28-1.76,6.63-1.63,10.03.13,3.51,1.41,8.54,4.26,10.53,3.27,2.64,9.61,6.17,14.64,8.16,7.3,2.9,14.65,5.65,22.04,8.28h0c.26.1.51.19.77.28.65.23,1.3.46,1.96.69,2.29.81,4.58,1.6,6.88,2.39,1.48.51,2.96,1.02,4.44,1.52,1.48.5,2.97.97,4.46,1.46,2.31.75,4.62,1.5,6.93,2.23.66.21,1.32.42,1.98.63.26.08.52.17.78.25h0c7.49,2.34,15.02,4.57,22.59,6.64,5.21,1.43,12.4,2.43,16.6,2.29,3.47.13,7.53-3.12,9.74-5.85,2.15-2.64,3.47-5.83,4.73-8.99,7.59-18.99,14-38.45,19.16-58.23.85-3.26,2-6.44,3.36-9.53.46-1.06.98-2.22,1.82-2.97.91-.81,1.85-1.28,3.7-.66,6.87,2.3,9.38,1.8,11.32-1.11,1.38-2.07,1.72-4.67,1.14-7.09Z"/>
      <g>
        <path class="cls-9" d="m5.12,185.76c-.31.94-1.33,1.45-2.27,1.13-.94-.31-1.45-1.33-1.13-2.27s1.33-1.45,2.27-1.13,1.45,1.33,1.13,2.27Z"/>
        <path class="cls-9" d="m14.78,189c-.31.94-1.33,1.45-2.27,1.13-.94-.31-1.45-1.33-1.13-2.27s1.33-1.45,2.27-1.13c.94.31,1.45,1.33,1.13,2.27Z"/>
      </g>
      <g>
        <path class="cls-9" d="m-11.47,165.26c.33-.62-.5-1.47-1.22-1.38-1.49,0-2.97,1.57-2.82,3.07.26,1.65,2.28,2.39,3.83,2.6,2.49.3,4.79-1.13,6.36-3.02,4.08-4.93,4.89-14.13,12.48-15.42,4.99-.73,9.04,4.38,5.28,8.52-1.23,1.34-3.88,1.88-5.15.2-.7-1-.69-2.56.47-3.29.19-.11.44-.05.55.14.11.19.05.44-.14.55-.41.25-.6.81-.5,1.35.36,1.95,3.02,1.65,4.1.39.84-.86,1.24-2.14,1.09-3.31-.31-2.53-3.23-3.8-5.56-3.43-3.94.68-6.11,4.49-7.63,7.96-1.57,3.65-3.33,8.02-7.18,10.04-3.1,1.78-8.88,1-9.66-3.1-.23-2.57,1.85-4.91,4.47-5.02,1.81-.16,3.87,1.88,2.83,4.04-.57,1.14-2.26.21-1.6-.89h0Z"/>
        <path class="cls-9" d="m1.75,147.35c-1.86-17.66,10.41-6.22-.59,3.02.42-1.07.58-2.04.59-3.02Z"/>
        <g>
          <path class="cls-9" d="m-3,169.96c2.23-1.34,4.19-3.07,6.28-4.64,1.14-.86,3.09-2.25,4.38-.89.58.61.4,1.48.03,2.16-.78,1.41-1.75,2.39-3.22,3.04-.43.19-1.59.67-2.06.7-1.26.35-3.56.01-5.76-.21.1-.04.22-.09.34-.17Z"/>
          <path class="cls-9" d="m6.42,171.8c4.07-2.39,11.46-7.16,11.89-2.46.13,1.39-.59,2.71-1.66,3.6-4.93,4.1-12.86,4.04-18.53,1.62,3.07-.86,6.77-1.86,8.3-2.75Z"/>
        </g>
      </g>
      <g class="cls-19">
        <path class="cls-9" d="m41.9,184.55c.08-.71.04-1.47-.03-1.99-.07-.49-.14-.98-.22-1.46-.67-4.01-1.86-7.89-3.23-11.71-2.78-7.78-6.29-15.3-10.16-22.58-3.87-7.28-8.15-14.34-12.58-21.3-2.25-3.54-4.55-7.05-6.85-10.57-1.16-1.78-2.33-3.56-3.49-5.33-.56-.86-1.12-1.72-1.71-2.57-.28-.4-.57-.8-.87-1.19-.3-.39-.66-.73-.95-1.13-1.27-1.74-2.45-3.54-3.67-5.3-1.22-1.75-2.44-3.49-3.66-5.23-1.09-1.57-2.06-3.31-3.46-4.64-1.32-1.26-3.02-2.1-4.84-2.33-1.94-.24-3.7.39-5.51.99-2.01.66-4.02,1.32-6.03,1.99-4.06,1.35-8.1,2.73-12.14,4.13-7.87,2.74-15.7,5.61-23.42,8.75-7.54,3.06-14.99,6.37-22.23,10.09-7,3.6-13.81,7.59-20.24,12.14-1.5,1.06-3.01,2.14-4.45,3.27-1.48,1.16-5.24,4.15-4.68,6.42.2.81,1.1,1.01,1.8,1.17,1.88.43,3.82.65,5.75.49,3.27-.28,6.48-1.61,8.83-3.93,1.35-1.33,2.4-2.98,3.11-4.73.09-.23.19-.47.25-.71.04-.15.03-.34.11-.47.19-.35.58-.05.84.03.91.3,1.88.47,2.83.55,3.5.29,7.02-.79,9.81-2.92,1.34-1.02,2.49-2.28,3.39-3.7.54-.86.99-1.79,1.33-2.75.16-.45.31-.92.4-1.4.05-.28,0-.81.39-.8.18,0,.35.09.51.15.23.08.46.13.7.18.5.11,1,.2,1.51.27.98.13,1.96.17,2.95.14,1.74-.06,3.46-.37,5.12-.91,3.3-1.08,6.3-3.07,8.52-5.75.64-.78,1.26-1.6,1.74-2.49.15-.28.26-.74.51-.94.28-.23.78.05,1.08.12,1.82.45,3.77.51,5.63.28,3.44-.41,6.76-1.85,9.4-4.1,1.45-1.23,2.72-2.71,3.68-4.35.13-.22.25-.44.36-.67.06-.13.11-.38.22-.48.25-.24.81.19,1.07.29.93.37,1.92.59,2.91.74,3.41.51,6.96-.15,10.02-1.72.8-.41,1.57-.88,2.3-1.41.34-.25.68-.5.98-.8.25-.25.5-.48.61,0,.09.4.14.8.26,1.2.14.46.3.91.47,1.36.34.9.73,1.78,1.21,2.61,1.86,3.25,5.07,5.9,8.59,7.18.39.14.78.26,1.19.32.51.07.33.39.26.78-.18.96-.23,1.97-.22,2.94.03,1.84.36,3.68.97,5.42,1.22,3.51,3.54,6.6,6.59,8.72.8.56,1.64,1.08,2.55,1.45.25.1.81.17.96.43.09.15.02.31-.01.47-.06.26-.11.52-.15.79-.24,1.66-.17,3.38.1,5.04.53,3.2,1.92,6.25,3.97,8.76,1.17,1.43,2.55,2.69,4.09,3.71.84.55,1.72,1.06,2.65,1.45.27.11.87.16,1.02.44.13.24-.19.62-.29.83-3.21,6.88.58,15.96,7.65,18.64.25.1.96.15,1.09.43.11.25-.22.77-.29,1-.3.95-.47,1.94-.56,2.92-.16,1.87.03,3.75.66,5.53,1.22,3.46,3.85,6.32,7.01,8.12.84.48,1.73.88,2.64,1.22.77.29,2,.82,2.73.15.42-.38.62-1.04.7-1.73Z"/>
      </g>
      <g>
        <path class="cls-9" d="m6.48,205.81c-2.21-2.75-7.94-1.67-10.6.09,1.46-.13,3.02.03,3.91.38,2.49.97,5.12,3.73,6.69,1.97.6-.68.55-1.73-.01-2.44Z"/>
        <path class="cls-9" d="m12.11,201.07c.02-.67-.32-1.32-.84-1.75-3.3-2.78-8.83-.67-11.32,2.46,2.58-1.22,12.05,3.04,12.16-.71Z"/>
      </g>
      <g>
        <path class="cls-9" d="m33.19,161.27c-9.48-22.69-25.91-46.21-39.92-66.18"/>
        <path class="cls-16" d="m32.96,161.37c-10.23-23.29-25.59-45.14-39.87-66.15l.37-.26,5.65,7.86c12.01,17.09,23.91,34.75,32.43,53.89l1.89,4.47-.47.2h0Z"/>
      </g>
    </g>
  </g>
  <g>
    <polygon class="cls-12" points="223.26 118.95 235.64 114.55 223.26 110.15 233.35 95.28 216.38 102.09 212.62 91.53 208.22 103.92 193.29 95.71 201.99 110.15 185.13 114.74 200.86 121.34 196.35 130.83 208.48 126.32 212.46 143.5 219.41 126.64 232.21 134.49 223.26 118.95"/>
    <path class="cls-17" d="m44.81,120.82c-4.27-1.09-6.81-2.07-8.53-3.8-1.73-1.73-2.71-4.26-3.8-8.53l-.24-.95-.24.95c-1.09,4.27-2.07,6.81-3.8,8.53-1.73,1.73-4.26,2.71-8.53,3.8l-.95.24.95.24c4.27,1.09,6.81,2.07,8.53,3.8,1.73,1.73,2.71,4.26,3.8,8.53l.24.95.24-.95c1.09-4.27,2.07-6.81,3.8-8.53,1.73-1.73,4.26-2.71,8.53-3.8l.95-.24-.95-.24Z"/>
    <polygon class="cls-12" points="585.78 60.03 598.16 55.63 585.78 51.22 595.87 36.36 578.9 43.17 575.14 32.61 570.74 44.99 555.81 36.79 564.51 51.22 547.65 55.82 563.38 62.41 558.87 71.9 571 67.4 574.98 84.58 581.93 67.72 594.73 75.56 585.78 60.03"/>
    <path class="cls-17" d="m383.37,226.51c.02-.19-.07-.39-.24-.49l-14.2-8.72-.6-16.66c0-.2-.13-.37-.31-.45-.18-.08-.39-.05-.54.08l-12.68,10.81-16.03-4.58c-.19-.05-.39,0-.52.15-.13.15-.17.36-.09.54l6.37,15.41-9.31,13.83c-.11.16-.12.37-.02.54l.48.25,16.62-1.29,10.28,13.12.51.18c.19-.04.34-.19.39-.38l3.91-16.2,15.66-5.72c.18-.07.31-.23.33-.43Z"/>
  </g>
  <g>
    <path class="cls-9" d="m31.93,68.98c0,2.44-1.98,4.42-4.42,4.42s-4.42-1.98-4.42-4.42,1.98-4.42,4.42-4.42,4.42,1.98,4.42,4.42Z"/>
    <path class="cls-9" d="m164.77,71.03c0,2.44-1.98,4.42-4.42,4.42s-4.42-1.98-4.42-4.42,1.98-4.42,4.42-4.42,4.42,1.98,4.42,4.42Z"/>
    <path class="cls-9" d="m165.79,150.69c0,2.44-1.98,4.42-4.42,4.42s-4.42-1.98-4.42-4.42,1.98-4.42,4.42-4.42,4.42,1.98,4.42,4.42Z"/>
    <path class="cls-9" d="m545.7,94.86c0,2.44-1.98,4.42-4.42,4.42s-4.42-1.98-4.42-4.42,1.98-4.42,4.42-4.42,4.42,1.98,4.42,4.42Z"/>
    <path class="cls-9" d="m351.92,99.78c0,2.44-1.98,4.42-4.42,4.42s-4.42-1.98-4.42-4.42,1.98-4.42,4.42-4.42,4.42,1.98,4.42,4.42Z"/>
    <path class="cls-9" d="m418.57,181.7c0,1.29-1.04,2.33-2.33,2.33s-2.33-1.04-2.33-2.33,1.04-2.33,2.33-2.33,2.33,1.04,2.33,2.33Z"/>
    <path class="cls-9" d="m349.69,184.69c0,1.29-1.04,2.33-2.33,2.33s-2.33-1.04-2.33-2.33,1.04-2.33,2.33-2.33,2.33,1.04,2.33,2.33Z"/>
    <path class="cls-9" d="m68.84,104.69c0,1.29-1.04,2.33-2.33,2.33s-2.33-1.04-2.33-2.33,1.04-2.33,2.33-2.33,2.33,1.04,2.33,2.33Z"/>
    <circle class="cls-9" cx="107.36" cy="73.79" r="2.33"/>
    <path class="cls-9" d="m598.88,90.13c0,1.29-1.04,2.33-2.33,2.33s-2.33-1.04-2.33-2.33,1.04-2.33,2.33-2.33,2.33,1.04,2.33,2.33Z"/>
    <path class="cls-9" d="m571.31,0c0,1.29-1.04,2.33-2.33,2.33s-2.33-1.04-2.33-2.33,1.04-2.33,2.33-2.33,2.33,1.04,2.33,2.33Z"/>
    <g>
      <line class="cls-29" x1="13.41" y1="93.01" x2="21.24" y2="108.27"/>
      <line class="cls-29" x1="24.95" y1="96.73" x2="9.69" y2="104.56"/>
      <line class="cls-29" x1="19.95" y1="92.48" x2="14.7" y2="108.81"/>
      <line class="cls-29" x1="25.49" y1="103.27" x2="9.16" y2="98.02"/>
      <g>
        <path class="cls-9" d="m14.66,92.59c.33.65.08,1.44-.57,1.77-.65.33-1.44.08-1.77-.57-.33-.65-.08-1.44.57-1.77.65-.33,1.44-.08,1.77.57Z"/>
        <path class="cls-9" d="m21.87,106.62c.33.65.08,1.44-.57,1.77-.65.33-1.44.08-1.77-.57-.33-.65-.08-1.44.57-1.77.65-.33,1.44-.08,1.77.57Z"/>
      </g>
      <g>
        <path class="cls-9" d="m20.91,93.02c-.22.69-.96,1.07-1.66.85-.69-.22-1.07-.96-.85-1.66.22-.69.96-1.07,1.66-.85s1.07.96.85,1.66Z"/>
        <path class="cls-9" d="m16.18,108.21c-.22.69-.96,1.07-1.66.85s-1.07-.96-.85-1.66.96-1.07,1.66-.85,1.07.96.85,1.66Z"/>
      </g>
      <g>
        <path class="cls-9" d="m9.82,96.83c.69.22,1.07.96.85,1.66-.22.69-.96,1.07-1.66.85-.69-.22-1.07-.96-.85-1.66.22-.69.96-1.07,1.66-.85Z"/>
        <path class="cls-9" d="m24.79,101.64c.69.22,1.07.96.85,1.66-.22.69-.96,1.07-1.66.85-.69-.22-1.07-.96-.85-1.66.22-.69.96-1.07,1.66-.85Z"/>
      </g>
      <g>
        <path class="cls-9" d="m9.57,102.81c.65-.33,1.44-.08,1.77.57.33.65.08,1.44-.57,1.77-.65.33-1.44.08-1.77-.57-.33-.65-.08-1.44.57-1.77Z"/>
        <path class="cls-9" d="m23.58,95.56c.65-.33,1.44-.08,1.77.57.33.65.08,1.44-.57,1.77-.65.33-1.44.08-1.77-.57-.33-.65-.08-1.44.57-1.77Z"/>
      </g>
    </g>
    <g>
      <line class="cls-29" x1="358.37" y1="139.06" x2="366.2" y2="154.32"/>
      <line class="cls-29" x1="369.92" y1="142.77" x2="354.66" y2="150.61"/>
      <line class="cls-29" x1="364.91" y1="138.53" x2="359.66" y2="154.86"/>
      <line class="cls-29" x1="370.45" y1="149.32" x2="354.12" y2="144.07"/>
      <g>
        <path class="cls-9" d="m359.63,138.63c.33.65.08,1.44-.57,1.77-.65.33-1.44.08-1.77-.57-.33-.65-.08-1.44.57-1.77.65-.33,1.44-.08,1.77.57Z"/>
        <path class="cls-9" d="m366.83,152.66c.33.65.08,1.44-.57,1.77-.65.33-1.44.08-1.77-.57-.33-.65-.08-1.44.57-1.77.65-.33,1.44-.08,1.77.57Z"/>
      </g>
      <g>
        <path class="cls-9" d="m365.88,139.07c-.22.69-.96,1.07-1.66.85-.69-.22-1.07-.96-.85-1.66.22-.69.96-1.07,1.66-.85.69.22,1.07.96.85,1.66Z"/>
        <path class="cls-9" d="m361.14,154.26c-.22.69-.96,1.07-1.66.85-.69-.22-1.07-.96-.85-1.66.22-.69.96-1.07,1.66-.85.69.22,1.07.96.85,1.66Z"/>
      </g>
      <g>
        <path class="cls-9" d="m354.79,142.87c.69.22,1.07.96.85,1.66-.22.69-.96,1.07-1.66.85-.69-.22-1.07-.96-.85-1.66s.96-1.07,1.66-.85Z"/>
        <path class="cls-9" d="m369.75,147.69c.69.22,1.07.96.85,1.66-.22.69-.96,1.07-1.66.85-.69-.22-1.07-.96-.85-1.66.22-.69.96-1.07,1.66-.85Z"/>
      </g>
      <g>
        <path class="cls-9" d="m354.54,148.86c.65-.33,1.44-.08,1.77.57.33.65.08,1.44-.57,1.77-.65.33-1.44.08-1.77-.57-.33-.65-.08-1.44.57-1.77Z"/>
        <path class="cls-9" d="m368.54,141.61c.65-.33,1.44-.08,1.77.57.33.65.08,1.44-.57,1.77-.65.33-1.44.08-1.77-.57-.33-.65-.08-1.44.57-1.77Z"/>
      </g>
    </g>
    <g>
      <line class="cls-29" x1="494.56" y1="220.08" x2="502.39" y2="235.34"/>
      <line class="cls-29" x1="506.1" y1="223.79" x2="490.84" y2="231.63"/>
      <line class="cls-29" x1="501.1" y1="219.55" x2="495.85" y2="235.88"/>
      <line class="cls-29" x1="506.64" y1="230.34" x2="490.31" y2="225.09"/>
      <g>
        <path class="cls-9" d="m495.81,219.65c.33.65.08,1.44-.57,1.77-.65.33-1.44.08-1.77-.57-.33-.65-.08-1.44.57-1.77.65-.33,1.44-.08,1.77.57Z"/>
        <path class="cls-9" d="m503.02,233.68c.33.65.08,1.44-.57,1.77-.65.33-1.44.08-1.77-.57-.33-.65-.08-1.44.57-1.77.65-.33,1.44-.08,1.77.57Z"/>
      </g>
      <g>
        <path class="cls-9" d="m502.06,220.09c-.22.69-.96,1.07-1.66.85-.69-.22-1.07-.96-.85-1.66s.96-1.07,1.66-.85c.69.22,1.07.96.85,1.66Z"/>
        <path class="cls-9" d="m497.33,235.28c-.22.69-.96,1.07-1.66.85s-1.07-.96-.85-1.66c.22-.69.96-1.07,1.66-.85.69.22,1.07.96.85,1.66Z"/>
      </g>
      <g>
        <path class="cls-9" d="m490.97,223.89c.69.22,1.07.96.85,1.66-.22.69-.96,1.07-1.66.85s-1.07-.96-.85-1.66.96-1.07,1.66-.85Z"/>
        <path class="cls-9" d="m505.94,228.71c.69.22,1.07.96.85,1.66-.22.69-.96,1.07-1.66.85s-1.07-.96-.85-1.66c.22-.69.96-1.07,1.66-.85Z"/>
      </g>
      <g>
        <path class="cls-9" d="m490.72,229.88c.65-.33,1.44-.08,1.77.57.33.65.08,1.44-.57,1.77-.65.33-1.44.08-1.77-.57-.33-.65-.08-1.44.57-1.77Z"/>
        <path class="cls-9" d="m504.73,222.63c.65-.33,1.44-.08,1.77.57.33.65.08,1.44-.57,1.77-.65.33-1.44.08-1.77-.57-.33-.65-.08-1.44.57-1.77Z"/>
      </g>
    </g>
    <g>
      <line class="cls-29" x1="543.48" y1="12.8" x2="551.32" y2="28.05"/>
      <line class="cls-29" x1="555.03" y1="16.51" x2="539.77" y2="24.34"/>
      <line class="cls-29" x1="550.02" y1="12.26" x2="544.77" y2="28.59"/>
      <line class="cls-29" x1="555.56" y1="23.05" x2="539.23" y2="17.8"/>
      <g>
        <path class="cls-9" d="m544.74,12.37c.33.65.08,1.44-.57,1.77-.65.33-1.44.08-1.77-.57-.33-.65-.08-1.44.57-1.77.65-.33,1.44-.08,1.77.57Z"/>
        <path class="cls-9" d="m551.94,26.4c.33.65.08,1.44-.57,1.77-.65.33-1.44.08-1.77-.57-.33-.65-.08-1.44.57-1.77s1.44-.08,1.77.57Z"/>
      </g>
      <g>
        <path class="cls-9" d="m550.99,12.8c-.22.69-.96,1.07-1.66.85-.69-.22-1.07-.96-.85-1.66s.96-1.07,1.66-.85,1.07.96.85,1.66Z"/>
        <path class="cls-9" d="m546.25,28c-.22.69-.96,1.07-1.66.85-.69-.22-1.07-.96-.85-1.66.22-.69.96-1.07,1.66-.85s1.07.96.85,1.66Z"/>
      </g>
      <g>
        <path class="cls-9" d="m539.9,16.61c.69.22,1.07.96.85,1.66s-.96,1.07-1.66.85c-.69-.22-1.07-.96-.85-1.66.22-.69.96-1.07,1.66-.85Z"/>
        <path class="cls-9" d="m554.87,21.42c.69.22,1.07.96.85,1.66s-.96,1.07-1.66.85c-.69-.22-1.07-.96-.85-1.66s.96-1.07,1.66-.85Z"/>
      </g>
      <g>
        <path class="cls-9" d="m539.65,22.59c.65-.33,1.44-.08,1.77.57.33.65.08,1.44-.57,1.77s-1.44.08-1.77-.57c-.33-.65-.08-1.44.57-1.77Z"/>
        <path class="cls-9" d="m553.65,15.34c.65-.33,1.44-.08,1.77.57.33.65.08,1.44-.57,1.77-.65.33-1.44.08-1.77-.57-.33-.65-.08-1.44.57-1.77Z"/>
      </g>
    </g>
  </g>
</svg>